<?xml version="1.0" standalone="no"?>
<!DOCTYPE svg PUBLIC "-//W3C//DTD SVG 20010904//EN"
 "http://www.w3.org/TR/2001/REC-SVG-20010904/DTD/svg10.dtd">
<svg version="1.0" xmlns="http://www.w3.org/2000/svg"
 width="2420.000000pt" height="1815.000000pt" viewBox="0 0 2420.000000 1815.000000"
 preserveAspectRatio="xMidYMid meet">

<g transform="translate(0.000000,1815.000000) scale(0.100000,-0.100000)"
fill="#000000" stroke="none">
<path d="M21 18143 l27 -4 -24 -24 -24 -24 0 -9018 c0 -8013 2 -9021 15 -9040
14 -20 13 -22 -2 -26 -10 -3 5429 -5 12087 -5 6658 0 12097 2 12087 5 -15 4
-16 6 -2 26 13 19 15 1027 15 9040 l0 9018 -24 24 -24 24 27 4 c14 2 -5421 4
-12079 4 -6658 0 -12093 -2 -12079 -4z m619 -263 c78 -40 122 -137 100 -219
-21 -80 -110 -150 -191 -151 -19 0 -59 12 -87 26 -84 42 -126 133 -103 220 12
46 62 107 106 129 43 21 128 19 175 -5z m1234 -99 c64 -64 76 -91 40 -91 -11
0 -14 -15 -14 -65 l0 -65 -39 0 -40 0 -3 53 c-3 48 -5 52 -30 55 -28 3 -28 2
-28 -52 l0 -56 -40 0 -40 0 0 65 c0 50 -3 65 -14 65 -26 0 -29 21 -7 44 12 12
21 35 21 49 0 29 27 48 39 28 5 -8 15 -3 31 14 13 14 31 25 40 25 8 0 46 -31
84 -69z m1136 24 c11 -13 9 -20 -9 -38 -11 -13 -21 -26 -21 -30 0 -4 42 -7 94
-7 71 0 95 -3 99 -14 11 -27 -17 -36 -107 -36 l-89 0 23 -24 c25 -28 21 -56
-8 -56 -18 0 -112 90 -112 107 0 9 102 113 111 113 4 0 12 -7 19 -15z m20451
-75 c43 -24 9 -82 -36 -62 -29 13 -32 34 -9 56 18 19 20 19 45 6z m143 -6 c23
-22 20 -43 -9 -56 -19 -8 -28 -8 -40 2 -20 17 -19 47 3 59 23 14 28 14 46 -5z
m140 0 c23 -22 20 -43 -9 -56 -19 -8 -28 -8 -40 2 -20 17 -19 47 3 59 23 14
28 14 46 -5z m-17486 -849 c18 -11 43 -36 55 -55 l22 -35 3 -785 2 -785 -22
-45 c-17 -33 -35 -51 -68 -67 l-44 -23 -2852 0 c-2102 0 -2860 3 -2885 11 -47
16 -87 56 -100 99 -7 23 -9 303 -7 822 3 776 3 787 24 815 11 15 40 38 64 51
l45 22 2865 -2 c2845 -3 2865 -3 2898 -23z m4799 -2240 c29 -28 43 -50 39 -60
-3 -8 -2 -15 2 -15 4 0 6 -1341 5 -2981 l-3 -2981 -22 -31 c-20 -28 -20 -30
-3 -17 19 15 19 14 4 -10 -9 -14 -34 -35 -55 -47 l-39 -23 -4460 0 c-2453 0
-4455 4 -4448 8 8 5 2 12 -20 20 -29 10 -30 10 -13 -3 11 -8 14 -15 8 -15 -16
0 -92 76 -92 92 0 6 7 3 15 -8 13 -17 13 -16 3 13 -8 22 -15 28 -20 20 -4 -7
-8 1334 -8 2978 0 2129 3 2986 11 2975 9 -12 10 -10 5 9 -7 33 18 78 57 101
32 20 87 20 4511 20 l4479 0 44 -45z m11070 39 c13 -4 20 -11 16 -17 -3 -6 -1
-7 6 -3 16 10 38 -10 62 -55 19 -37 19 -96 19 -3026 0 -2128 -3 -2984 -11
-2973 -9 12 -10 10 -6 -8 9 -39 -50 -112 -90 -112 -4 0 6 9 23 19 18 11 35 24
39 30 3 6 -10 0 -31 -14 -20 -14 -44 -25 -53 -25 -14 0 -14 -2 -1 -10 10 -6
-1562 -10 -4445 -10 -3159 0 -4456 3 -4445 11 12 8 9 9 -10 5 -28 -6 -90 25
-90 46 0 6 12 1 28 -13 l27 -24 -24 27 c-13 15 -29 26 -35 25 -6 -1 -10 10 -9
26 1 15 -2 25 -8 22 -5 -4 -9 1118 -9 2985 0 1786 4 2989 9 2986 5 -4 7 2 4
12 -6 23 32 71 71 88 26 11 780 13 4486 13 2450 1 4465 -2 4477 -5z m-11157
-7705 c-12 -8 -9 -9 10 -5 34 7 84 -24 105 -65 12 -22 13 -29 3 -23 -11 6 -11
5 0 -8 10 -12 12 -624 12 -3017 0 -1650 0 -3006 0 -3012 0 -5 -4 -8 -9 -5 -5
3 -12 -1 -15 -10 -4 -10 -2 -13 7 -7 7 4 5 -3 -4 -17 -9 -14 -34 -35 -55 -47
l-39 -23 -4460 0 c-3159 0 -4456 3 -4445 11 12 8 9 9 -12 5 -22 -5 -35 1 -68
32 -22 22 -40 45 -40 53 0 8 9 0 19 -17 11 -18 24 -35 30 -39 6 -3 0 10 -14
31 -14 20 -25 44 -25 53 0 14 -2 14 -10 1 -6 -10 -10 1048 -10 2995 0 1656 4
3005 8 2998 5 -8 12 -3 19 17 7 19 8 28 1 24 -6 -4 -5 3 2 15 6 12 16 18 22
15 7 -4 8 -3 4 4 -3 6 3 16 15 22 15 8 19 8 15 1 -5 -7 -1 -9 8 -5 9 3 14 9
11 14 -2 4 8 5 23 3 23 -3 24 -2 7 6 -13 6 1637 10 4440 10 3159 1 4456 -2
4445 -10z m11133 3 c-8 -5 -2 -12 20 -20 29 -10 30 -10 13 3 -11 8 -14 15 -8
15 16 0 92 -76 92 -92 0 -6 -7 -3 -15 8 -13 17 -13 16 -3 -13 8 -22 15 -28 20
-20 4 7 8 -1342 8 -2998 0 -2143 -3 -3006 -11 -2995 -9 12 -10 10 -5 -9 11
-52 -53 -116 -105 -105 -19 5 -21 4 -9 -5 11 -8 -1270 -11 -4443 -11 -4448 0
-4458 0 -4497 20 -49 25 -74 61 -65 92 5 18 4 20 -4 8 -8 -10 -11 890 -11
2998 0 1657 4 3011 8 3008 4 -2 8 7 7 22 0 15 5 27 10 27 6 0 26 13 45 29 19
15 28 25 20 21 -8 -5 -25 -17 -37 -28 -13 -11 -23 -16 -23 -10 0 20 64 53 91
47 19 -5 21 -3 9 5 -11 8 1271 11 4445 11 2453 0 4455 -4 4448 -8z m2047
-6632 c-61 -10 -24021 -10 -24090 0 -30 4 5388 7 12040 7 6652 0 12075 -3
12050 -7z m-9006 -126 c21 -20 20 -43 -1 -66 -16 -17 -123 -18 -3041 -18
-2801 0 -3027 1 -3044 17 -22 20 -23 41 -1 65 16 17 123 18 3044 18 2739 0
3029 -1 3043 -16z"/>
<path d="M470 17842 c-79 -44 -101 -155 -45 -228 74 -96 218 -79 267 33 27 62
17 114 -32 166 -34 37 -42 41 -96 44 -45 3 -67 0 -94 -15z m138 -85 l-5 -72
-54 -52 -54 -52 -3 71 -3 71 53 54 c29 29 56 53 61 53 6 0 8 -32 5 -73z"/>
<path d="M537 17714 c-8 -8 1 -24 14 -24 5 0 9 7 9 15 0 15 -12 20 -23 9z"/>
<path d="M501 16880 c-47 -5 -58 -11 -87 -44 -21 -25 -35 -53 -39 -80 -3 -22
-5 -384 -3 -803 3 -751 3 -762 24 -789 11 -15 33 -37 48 -48 l27 -21 2879 0
2878 0 39 31 c22 18 43 47 51 69 10 30 12 205 10 809 -3 755 -3 772 -23 806
-12 19 -34 42 -51 52 -29 17 -164 18 -2865 21 -1559 1 -2858 0 -2888 -3z
m2813 -296 c24 -23 20 -40 -20 -84 l-36 -40 154 0 c158 0 178 -5 178 -41 0
-42 -24 -49 -176 -49 -79 0 -144 -4 -144 -8 0 -5 14 -21 30 -37 17 -16 30 -35
30 -44 0 -18 -29 -51 -45 -51 -6 0 -48 36 -93 81 -61 60 -82 88 -82 107 0 19
21 47 78 104 81 80 99 89 126 62z m580 -749 c3 -8 3 -66 -1 -130 l-6 -114 86
85 c86 86 117 101 125 60 3 -12 -12 -33 -44 -60 l-47 -42 51 -106 c57 -116 60
-129 36 -153 -12 -12 -19 -13 -30 -4 -8 6 -14 16 -14 21 0 5 -19 52 -42 104
l-42 93 -38 -41 c-33 -36 -38 -47 -38 -90 0 -52 -18 -71 -49 -51 -14 9 -15 35
-12 209 2 109 7 207 12 217 12 21 45 23 53 2z m-1070 -36 c29 -23 34 -60 11
-79 -14 -11 -10 -16 24 -36 74 -45 90 -151 32 -213 -30 -32 -68 -45 -175 -60
-110 -16 -106 -22 -106 187 0 186 4 205 45 215 11 3 48 5 81 6 48 1 67 -3 88
-20z m396 -69 c20 -5 51 -26 70 -46 35 -35 35 -36 35 -127 l0 -92 33 3 c60 4
52 -48 -9 -63 -19 -5 -33 0 -55 18 l-28 24 -44 -23 c-54 -29 -93 -30 -148 -5
-77 35 -105 113 -70 195 25 60 108 122 166 125 8 1 31 -4 50 -9z m430 0 c23 0
70 -54 70 -79 0 -42 -11 -45 -41 -11 -36 39 -104 43 -136 8 -47 -53 -58 -123
-24 -157 25 -25 103 -37 148 -23 39 12 59 8 68 -16 12 -31 -18 -43 -111 -45
-137 -1 -184 32 -184 132 0 67 29 132 72 163 32 22 92 39 116 32 8 -2 17 -4
22 -4z"/>
<path d="M2700 15761 c-17 -5 -26 -15 -28 -33 -3 -24 -2 -25 35 -19 43 8 83
28 83 40 0 18 -48 24 -90 12z"/>
<path d="M2708 15643 l-38 -16 0 -72 c0 -84 4 -88 78 -78 68 9 99 27 112 67
14 43 2 69 -43 96 -37 23 -58 24 -109 3z"/>
<path d="M3130 15662 c-44 -22 -80 -75 -80 -118 0 -45 47 -84 102 -84 53 0
102 47 113 107 9 55 2 75 -34 96 -37 21 -57 21 -101 -1z"/>
<path d="M2004 14628 l-29 -33 33 29 c30 28 37 36 29 36 -2 0 -16 -15 -33 -32z"/>
<path d="M11045 14630 c47 -55 48 -56 37 -35 -6 11 -23 31 -39 45 l-28 25 30
-35z"/>
<path d="M5900 13959 c-404 -23 -837 -177 -1152 -408 l-38 -28 46 -63 c26 -34
52 -64 58 -66 6 -2 54 24 107 58 714 471 1662 439 2357 -79 118 -88 305 -275
397 -399 148 -196 241 -373 315 -599 40 -125 80 -301 80 -357 0 -29 -3 -31
-97 -49 -77 -14 -93 -30 -72 -68 8 -14 91 -122 183 -238 137 -174 172 -213
192 -213 30 0 33 7 80 185 20 77 52 198 71 269 32 117 34 130 19 144 -14 14
-23 14 -102 -1 -48 -10 -88 -16 -90 -15 -1 2 -9 46 -18 98 -20 117 -75 308
-122 426 -181 451 -512 840 -924 1088 -292 177 -663 295 -973 311 -56 3 -120
7 -142 9 -22 1 -101 -1 -175 -5z"/>
<path d="M5680 13244 c-100 -12 -297 -60 -395 -96 -127 -47 -198 -81 -306
-148 -108 -67 -269 -196 -269 -215 0 -6 26 -36 58 -68 l58 -57 59 51 c187 159
389 261 632 320 674 164 1372 -171 1695 -814 51 -102 128 -314 128 -354 0 -24
-27 -35 -118 -49 -41 -6 -72 -25 -72 -44 0 -5 24 -40 53 -78 302 -397 339
-435 366 -384 8 15 50 170 129 475 22 88 23 100 10 114 -14 14 -23 13 -86 -1
-39 -9 -77 -16 -84 -16 -9 0 -26 41 -47 113 -179 622 -672 1089 -1291 1222
-105 23 -154 28 -305 30 -99 2 -196 1 -215 -1z"/>
<path d="M5610 12434 c-221 -32 -385 -92 -583 -215 -43 -27 -100 -66 -125 -86
-126 -100 -202 -167 -202 -177 0 -7 26 -38 59 -70 l59 -58 53 49 c220 198 454
325 679 367 320 61 637 -64 852 -335 61 -78 138 -202 138 -225 0 -6 -30 -17
-67 -25 -101 -21 -99 -37 18 -186 229 -292 272 -343 284 -343 8 0 20 6 27 14
8 7 47 140 87 296 88 339 91 323 -46 297 -48 -10 -94 -17 -100 -17 -7 0 -27
28 -44 63 -111 221 -299 421 -500 531 -173 95 -417 144 -589 120z"/>
<path d="M8987 11838 c-23 -23 -24 -33 -30 -188 -17 -489 -209 -935 -542
-1259 -307 -299 -670 -451 -1074 -451 -240 0 -442 46 -656 150 -279 135 -520
357 -697 642 -75 122 -174 355 -212 503 -29 114 -56 315 -56 420 0 92 -3 108
-20 125 -11 11 -29 20 -40 20 -11 0 -29 -9 -40 -20 -17 -17 -20 -33 -20 -126
0 -113 28 -319 61 -449 26 -101 105 -307 159 -416 150 -298 406 -573 694 -745
403 -240 916 -290 1365 -132 351 123 665 378 891 723 190 292 310 712 310
1091 0 95 -8 117 -47 129 -16 4 -29 0 -46 -17z"/>
<path d="M5770 9055 c0 -248 1 -255 20 -255 19 0 20 8 22 221 l3 221 92 -219
c69 -165 95 -218 108 -218 13 0 39 52 105 208 49 115 91 211 94 215 3 3 6 -92
6 -211 0 -210 1 -217 20 -217 19 0 20 7 20 255 l0 255 -29 0 c-22 0 -32 -6
-37 -22 -15 -48 -172 -409 -178 -411 -4 -1 -30 52 -57 118 -139 334 -129 315
-161 315 l-28 0 0 -255z"/>
<path d="M6475 9179 c-39 -11 -84 -53 -101 -95 -22 -53 -18 -152 9 -199 62
-110 204 -116 281 -12 17 22 22 46 24 110 3 103 -19 150 -88 185 -47 23 -76
26 -125 11z m119 -50 c40 -31 58 -75 58 -139 0 -68 -21 -113 -65 -140 -91 -56
-187 15 -187 139 0 100 48 161 125 161 28 0 51 -7 69 -21z"/>
<path d="M6884 9176 c-18 -8 -37 -22 -43 -33 -9 -16 -10 -15 -11 10 0 20 -5
27 -20 27 -19 0 -20 -7 -20 -190 0 -183 1 -190 20 -190 19 0 20 7 20 139 0
135 1 140 26 170 18 21 38 33 65 37 29 5 39 11 39 25 0 23 -30 25 -76 5z"/>
<path d="M7100 9168 c-120 -61 -127 -281 -11 -346 64 -36 161 -26 200 22 23
27 2 38 -31 15 -86 -62 -197 -11 -209 96 l-4 30 133 3 132 3 0 42 c0 120 -107
188 -210 135z m121 -28 c24 -13 49 -61 49 -95 l0 -25 -110 0 c-94 0 -110 2
-110 16 0 26 31 84 54 99 24 17 89 20 117 5z"/>
<path d="M1990 8536 c0 -2 8 -10 18 -17 15 -13 16 -12 3 4 -13 16 -21 21 -21
13z"/>
<path d="M10968 8483 c7 -3 16 -2 19 1 4 3 -2 6 -13 5 -11 0 -14 -3 -6 -6z"/>
<path d="M13124 14628 l-19 -23 23 19 c21 18 27 26 19 26 -2 0 -12 -10 -23
-22z"/>
<path d="M18468 13890 c-18 -14 -19 -43 -18 -611 0 -327 -3 -598 -6 -602 -4
-3 -33 8 -65 26 -92 51 -93 49 -97 -177 l-2 -186 -508 0 c-382 0 -511 -3 -520
-12 -13 -13 -18 -262 -6 -292 5 -14 61 -16 520 -16 l514 0 2 -192 3 -193 24
-3 c13 -2 45 8 71 22 26 14 53 26 59 26 8 0 11 -108 9 -397 l-3 -398 -679 0
-680 0 -10 48 c-11 48 -26 70 -408 599 -60 82 -108 158 -108 170 0 11 7 48 16
82 14 55 15 90 4 339 -7 153 -11 280 -8 282 3 3 52 -70 109 -163 l105 -167
214 -182 c118 -101 225 -186 237 -189 49 -13 90 44 62 87 -8 11 -106 98 -218
192 l-204 172 -153 245 c-84 135 -153 247 -154 250 0 3 19 11 43 17 74 20 121
63 164 149 37 76 38 80 38 189 0 104 -2 114 -33 177 -51 104 -137 168 -228
168 -40 0 -124 -41 -155 -76 -132 -146 -129 -413 5 -547 63 -63 59 -74 -121
-346 l-156 -236 -84 -292 c-45 -161 -83 -299 -83 -308 0 -21 36 -55 60 -55 41
0 56 35 135 316 l79 279 104 158 c57 87 105 157 107 155 2 -2 8 -122 15 -268
l12 -265 -25 -105 c-17 -74 -34 -121 -59 -160 -19 -30 -117 -197 -218 -370
-101 -173 -190 -323 -198 -332 -13 -16 -40 -18 -231 -20 l-215 -3 -15 -27
c-14 -25 -14 -29 5 -55 l21 -28 172 -3 c94 -1 171 -5 171 -9 0 -3 -36 -67 -80
-142 -44 -75 -80 -147 -80 -159 0 -30 137 -289 163 -307 15 -10 47 -15 103
-15 90 0 114 13 114 63 0 43 -32 67 -89 67 l-49 0 -51 94 -51 94 91 157 92
157 471 -4 471 -3 61 -247 c34 -136 67 -254 73 -262 7 -9 21 -18 30 -21 24 -7
311 72 334 93 27 25 19 82 -14 101 -25 14 -36 13 -130 -14 -57 -15 -109 -30
-115 -32 -7 -2 -16 21 -23 59 -7 35 -26 116 -42 180 -16 64 -29 123 -29 130 0
11 128 13 695 10 l696 -2 24 24 25 25 0 353 c0 194 4 348 8 341 4 -7 43 -29
86 -49 93 -42 232 -68 456 -84 291 -21 378 -35 514 -81 129 -44 205 -90 302
-181 l84 -80 0 -107 c0 -155 -11 -147 210 -156 158 -6 183 -5 205 9 18 12 25
25 25 50 0 58 -18 65 -175 68 l-140 3 -3 1496 c-2 1253 -4 1498 -16 1508 -10
8 -237 12 -827 14 -710 2 -815 0 -831 -13z m1047 -117 c-38 -10 -71 -42 -84
-81 -13 -37 -17 -41 -60 -47 -105 -16 -162 -71 -169 -165 -3 -43 1 -66 17 -98
11 -22 25 -43 30 -46 5 -3 0 -23 -10 -43 -40 -79 -7 -195 72 -252 23 -17 48
-31 56 -31 7 0 13 -8 13 -18 0 -43 118 -114 213 -128 43 -6 48 -9 43 -28 -3
-11 -6 -38 -6 -58 0 -36 -2 -39 -68 -72 l-68 -34 -39 24 c-97 59 -253 83 -545
84 -206 1 -230 3 -285 23 l-60 22 -3 478 -2 477 487 -1 c269 -1 479 -4 468 -6z
m260 -9 c-16 -8 -38 -23 -47 -31 -16 -14 -20 -15 -35 -1 -10 9 -31 23 -48 31
-29 16 -28 16 65 17 92 0 94 -1 65 -16z m245 1 c0 -19 -11 -19 -36 0 -18 14
-18 14 9 15 17 0 27 -5 27 -15z m-60 -87 c22 -13 44 -34 50 -48 7 -16 9 -134
8 -325 l-3 -300 -40 -19 -39 -20 -48 27 c-60 34 -68 34 -106 -3 -39 -37 -66
-44 -155 -38 -90 6 -154 36 -162 76 -9 43 -20 56 -51 66 -65 19 -76 27 -94 69
-22 51 -18 76 22 133 32 46 30 61 -13 93 -39 29 -53 65 -39 105 16 49 59 69
129 61 54 -6 60 -5 75 16 9 13 16 40 16 59 0 43 15 60 51 60 49 0 76 -17 89
-54 22 -68 68 -68 109 -2 41 65 129 85 201 44z m-3335 -482 c48 -48 69 -105
69 -191 0 -92 -24 -157 -76 -200 -83 -70 -177 19 -186 176 -5 92 12 150 60
205 38 43 95 48 133 10z m3395 -300 c0 -8 -14 -19 -31 -25 -40 -14 -39 -14
-39 2 0 7 15 18 33 24 17 5 33 11 35 12 1 0 2 -5 2 -13z m-1 -368 c-1 -145 -3
-256 -5 -248 -5 19 -54 459 -54 482 0 15 15 24 48 27 9 1 12 -57 11 -261z
m-1117 172 c125 0 262 -5 305 -11 77 -11 179 -41 196 -58 19 -19 -364 -241
-417 -241 -12 0 -110 48 -218 106 l-198 105 0 68 0 68 53 -18 c44 -16 86 -18
279 -19z m712 -92 c-7 -56 -24 -275 -24 -312 0 -43 27 -63 61 -45 30 15 267
-6 290 -27 21 -19 56 -18 68 4 7 12 10 -156 11 -536 l0 -554 -62 56 c-79 72
-161 118 -299 167 -132 47 -235 64 -474 79 -218 14 -391 40 -470 72 -37 14
-75 39 -102 67 -41 43 -43 47 -43 107 0 37 5 66 13 72 6 5 167 92 357 192 190
101 353 191 364 200 32 31 12 53 -104 114 -60 31 -112 61 -114 65 -3 4 32 25
77 48 46 22 136 75 201 118 119 77 235 145 248 145 4 0 5 -15 2 -32z m-3000
-1208 c46 -63 142 -197 214 -298 73 -101 132 -192 132 -203 0 -18 -12 -19
-421 -19 -409 0 -421 1 -416 19 5 21 263 466 365 630 17 29 2 44 126 -129z"/>
<path d="M17384 9310 c-39 -12 -95 -69 -110 -112 -20 -54 -17 -236 5 -283 23
-52 81 -102 127 -111 54 -10 150 2 186 23 l33 19 3 100 3 99 -86 -3 c-65 -3
-85 -7 -85 -18 0 -11 15 -14 65 -14 l66 0 -3 -72 c-3 -70 -4 -73 -33 -87 -45
-22 -133 -20 -175 4 -58 33 -80 91 -80 205 1 155 46 220 153 220 64 0 101 -21
124 -70 19 -42 53 -56 53 -21 0 23 -38 79 -71 103 -30 23 -128 32 -175 18z"/>
<path d="M17840 9179 c-107 -29 -154 -215 -80 -319 43 -61 157 -80 220 -37
116 78 99 301 -27 353 -37 16 -63 16 -113 3z m111 -45 c58 -30 87 -143 55
-217 -23 -56 -61 -82 -116 -82 -61 0 -103 35 -119 102 -37 144 66 256 180 197z"/>
<path d="M11020 6947 c0 -2 15 -16 33 -33 l32 -29 -29 33 c-28 30 -36 37 -36
29z"/>
<path d="M5135 6470 c-247 -49 -470 -248 -555 -496 -98 -284 10 -630 253 -811
137 -102 274 -145 457 -144 139 0 203 15 329 77 77 38 110 62 176 128 121 120
183 236 211 397 66 378 -172 745 -544 840 -79 20 -247 25 -327 9z m297 -129
c141 -36 254 -110 341 -222 182 -236 164 -575 -43 -792 -78 -82 -147 -127
-252 -165 -62 -22 -90 -26 -188 -26 -186 -1 -319 53 -446 180 -117 116 -177
264 -177 434 0 169 59 308 182 430 44 44 102 89 138 108 132 70 300 90 445 53z"/>
<path d="M8025 6396 c-140 -39 -220 -84 -324 -181 -309 -288 -290 -820 39
-1093 365 -302 918 -184 1128 241 57 116 75 211 69 357 -5 136 -26 214 -87
329 -63 118 -215 255 -344 311 -149 63 -334 77 -481 36z m339 -116 c113 -29
190 -73 276 -160 83 -82 139 -175 165 -276 19 -74 19 -241 0 -314 -67 -252
-295 -440 -555 -457 -239 -15 -460 106 -578 317 -50 88 -71 174 -71 290 -1
184 52 314 179 440 45 45 100 89 137 108 134 70 300 90 447 52z"/>
<path d="M6165 5284 c-11 -2 -44 -9 -73 -15 -256 -52 -482 -272 -548 -534 -23
-91 -23 -256 0 -350 50 -206 199 -390 391 -481 113 -54 183 -69 325 -68 145 0
214 16 330 74 183 92 301 234 372 445 33 101 33 297 0 405 -80 255 -268 438
-519 506 -57 15 -239 27 -278 18z m217 -125 c29 -6 95 -31 147 -56 213 -102
341 -305 341 -543 0 -210 -101 -396 -279 -512 -239 -156 -567 -122 -770 82
-218 218 -238 555 -48 806 85 111 238 204 377 227 52 9 181 7 232 -4z"/>
<path d="M8781 4715 c-160 -146 -296 -265 -300 -265 -5 0 -41 36 -81 80 -70
78 -98 94 -117 68 -9 -13 -31 -68 -106 -263 -20 -49 -56 -143 -82 -209 -46
-119 -49 -141 -19 -153 14 -5 577 148 617 169 31 16 18 44 -58 129 l-76 84 63
56 c403 361 533 486 536 512 5 38 -14 57 -53 57 -28 0 -69 -34 -324 -265z"/>
<path d="M7157 4732 c-9 -10 -32 -88 -51 -173 -20 -84 -51 -224 -71 -309 -20
-85 -52 -225 -71 -310 -19 -85 -53 -234 -75 -330 -119 -524 -122 -540 -111
-565 9 -19 19 -25 43 -25 27 0 196 49 569 164 58 18 317 97 575 176 259 78
478 150 488 158 9 8 17 27 17 42 0 35 37 -1 -907 873 -355 328 -370 339 -406
299z"/>
<path d="M5294 3716 c-268 -61 -486 -270 -555 -533 -29 -107 -29 -269 0 -376
43 -163 158 -326 293 -419 219 -148 502 -169 743 -54 464 221 556 848 176
1198 -87 80 -158 122 -268 161 -75 26 -106 30 -208 33 -78 3 -141 -1 -181 -10z
m351 -140 c262 -84 437 -340 422 -616 -12 -217 -135 -409 -324 -508 -101 -52
-180 -72 -290 -72 -175 0 -312 57 -438 185 -123 123 -178 255 -179 425 0 107
16 173 65 277 130 274 445 405 744 309z"/>
<path d="M8342 3310 c-186 -26 -378 -137 -486 -281 -99 -131 -148 -280 -148
-449 0 -121 23 -224 73 -324 128 -256 372 -407 659 -407 206 0 366 66 510 211
97 97 139 163 183 287 30 83 32 96 32 233 0 137 -2 150 -32 233 -40 113 -83
184 -161 268 -162 173 -401 260 -630 229z m247 -136 c213 -52 391 -231 446
-449 18 -69 20 -202 4 -277 -30 -144 -152 -316 -280 -394 -194 -118 -441 -118
-638 -2 -123 73 -232 215 -274 357 -26 88 -27 242 -3 331 56 206 225 377 426
429 94 25 230 27 319 5z"/>
<path d="M5954 1596 c-44 -20 -64 -52 -64 -108 0 -45 -1 -47 -32 -50 -43 -4
-48 -26 -6 -30 l33 -3 3 -172 c2 -164 3 -173 22 -173 19 0 20 9 22 173 l3 172
43 3 c28 2 42 8 42 18 0 10 -12 14 -45 14 l-45 0 0 44 c0 36 5 48 26 65 15 12
40 21 55 21 35 0 39 25 7 34 -29 7 -27 8 -64 -8z"/>
<path d="M6203 1603 c-40 -8 -73 -59 -73 -114 l0 -49 -35 0 c-46 0 -49 -27 -2
-32 l32 -3 3 -172 c2 -165 3 -173 22 -173 19 0 20 7 20 175 l0 175 45 0 c33 0
45 4 45 15 0 11 -12 15 -45 15 l-45 0 0 43 c0 53 30 87 78 87 38 0 44 24 10
34 -13 3 -25 5 -28 5 -3 -1 -15 -4 -27 -6z"/>
<path d="M5704 1566 c-9 -24 4 -48 23 -44 12 2 18 12 18 28 0 29 -32 41 -41
16z"/>
<path d="M5230 1316 l0 -256 89 0 c133 0 190 26 238 107 21 36 27 63 31 122 5
91 -8 144 -48 199 -45 62 -78 75 -202 80 l-108 4 0 -256z m224 199 c63 -30 96
-100 96 -202 0 -69 -18 -124 -53 -161 -37 -40 -71 -52 -152 -52 l-75 0 0 215
0 215 76 0 c48 0 88 -6 108 -15z"/>
<path d="M7727 1533 c-4 -3 -7 -26 -7 -50 0 -43 0 -43 -35 -43 -24 0 -35 -5
-35 -15 0 -10 10 -15 34 -15 l34 0 4 -154 c3 -130 7 -158 21 -174 20 -21 68
-35 92 -26 27 11 16 33 -17 36 -50 5 -58 32 -56 183 l3 130 38 3 c23 2 37 8
37 17 0 9 -14 15 -37 17 -38 3 -38 3 -41 51 -3 44 -16 59 -35 40z"/>
<path d="M6429 1441 c-77 -25 -121 -93 -122 -191 -1 -118 68 -195 174 -193 48
1 104 26 114 51 11 28 -7 30 -43 6 -30 -21 -46 -25 -85 -21 -67 6 -110 50
-118 122 l-4 30 133 3 132 3 0 42 c0 103 -90 176 -181 148z m84 -42 c27 -12
53 -52 59 -89 l3 -25 -112 -3 c-124 -3 -128 -1 -98 58 31 61 92 85 148 59z"/>
<path d="M6810 1439 c-14 -6 -35 -20 -47 -31 l-23 -21 0 26 c0 20 -5 27 -20
27 -19 0 -20 -7 -20 -190 0 -183 1 -190 20 -190 19 0 20 7 20 129 0 71 4 141
10 155 12 32 52 59 90 60 24 1 30 5 30 24 0 24 -18 28 -60 11z"/>
<path d="M7032 1440 c-72 -17 -122 -95 -122 -190 0 -101 44 -168 125 -189 62
-16 165 17 165 53 0 24 -12 24 -47 0 -86 -58 -203 3 -203 106 l0 30 136 0 137
0 -7 47 c-14 107 -90 166 -184 143z m87 -45 c29 -14 67 -87 56 -106 -9 -13
-225 -12 -225 1 0 25 30 78 55 98 32 26 74 28 114 7z"/>
<path d="M7426 1440 c-16 -5 -42 -21 -57 -36 l-29 -28 0 32 c0 25 -4 32 -20
32 -19 0 -20 -7 -20 -190 0 -183 1 -190 20 -190 19 0 20 7 20 136 l0 136 39
39 c47 48 94 53 138 15 28 -24 28 -24 31 -175 4 -140 6 -151 23 -151 18 0 19
9 19 133 0 146 -9 193 -42 224 -27 25 -82 35 -122 23z"/>
<path d="M5704 1427 c-2 -7 -3 -91 -2 -187 3 -157 5 -175 21 -178 16 -3 17 11
17 187 0 165 -2 191 -15 191 -9 0 -18 -6 -21 -13z"/>
<path d="M11049 783 c-13 -16 -12 -17 4 -4 16 13 21 21 13 21 -2 0 -10 -8 -17
-17z"/>
<path d="M22160 6936 c0 -2 8 -10 18 -17 15 -13 16 -12 3 4 -13 16 -21 21 -21
13z"/>
<path d="M19145 6190 c-72 -33 -83 -45 -260 -275 -202 -262 -287 -366 -385
-471 -49 -51 -103 -114 -120 -139 -56 -81 -150 -276 -166 -344 -26 -106 -85
-217 -160 -303 -38 -43 -74 -78 -80 -78 -17 0 -95 94 -126 151 -27 48 -71 170
-83 229 -4 19 -23 65 -41 102 -80 160 -136 240 -263 376 -70 75 -204 238 -296
362 -196 261 -251 322 -320 358 -61 31 -137 35 -177 8 -32 -21 -58 -73 -58
-116 l0 -32 -67 56 c-80 66 -141 97 -205 104 -114 11 -172 -115 -105 -227 25
-42 96 -129 194 -237 40 -45 73 -85 73 -89 0 -4 -78 69 -173 162 -108 105
-191 178 -219 191 -110 54 -236 7 -238 -88 0 -42 38 -128 81 -183 99 -126 279
-298 444 -425 29 -22 29 -23 5 -17 -14 4 -119 53 -235 110 -195 97 -299 135
-366 135 -78 0 -152 -48 -170 -110 -10 -33 -9 -47 6 -85 23 -61 87 -108 240
-176 66 -29 137 -63 158 -76 21 -13 112 -60 203 -104 90 -44 186 -98 212 -119
51 -39 116 -133 145 -208 32 -80 31 -80 -110 -151 -202 -100 -290 -171 -323
-258 -59 -157 19 -323 151 -323 45 0 48 2 150 103 117 115 198 164 355 215 82
27 97 28 150 20 32 -6 113 -8 179 -5 77 4 127 2 140 -5 32 -18 96 -78 147
-138 l46 -56 -121 -130 c-202 -216 -576 -604 -864 -895 -217 -219 -273 -281
-273 -302 0 -35 25 -57 63 -57 28 0 59 28 272 243 432 435 1230 1279 1536
1623 145 162 179 219 225 365 31 101 95 241 147 322 21 32 86 112 146 178 60
66 207 245 326 399 120 153 223 281 229 284 6 2 28 11 49 20 48 21 47 7 -1
-47 -91 -100 -312 -446 -319 -498 -7 -51 25 -84 74 -76 19 3 42 12 50 19 9 7
94 99 189 204 191 211 326 343 392 381 111 65 46 -36 -203 -318 -242 -274
-283 -348 -218 -399 20 -16 36 -20 58 -16 78 16 238 140 465 361 91 89 181
173 201 188 39 29 79 36 79 13 0 -50 -206 -271 -394 -423 -115 -92 -202 -177
-221 -213 -20 -39 -12 -84 18 -105 57 -40 171 -8 432 120 187 92 321 145 367
145 31 0 52 -15 45 -32 -3 -8 -142 -83 -309 -167 -343 -173 -447 -233 -500
-288 -47 -48 -135 -194 -149 -247 -14 -53 -7 -147 14 -179 10 -15 60 -46 131
-80 165 -80 259 -147 292 -209 19 -37 17 -108 -4 -135 l-17 -23 -72 70 c-40
38 -100 88 -134 111 -71 48 -235 122 -329 148 -59 17 -72 17 -130 5 -80 -17
-163 -18 -228 -3 -63 15 -107 6 -168 -33 -79 -52 -139 -121 -470 -538 -544
-687 -930 -1157 -1170 -1425 -95 -107 -178 -203 -183 -214 -28 -51 9 -112 59
-96 43 14 486 530 989 1153 68 83 127 152 131 152 4 0 38 -39 76 -87 248 -317
774 -947 945 -1133 86 -94 111 -116 136 -118 38 -4 69 33 59 72 -3 13 -47 67
-97 121 -147 158 -585 683 -927 1109 l-111 139 51 66 c28 36 105 135 171 218
l120 153 111 -118 c61 -64 181 -191 266 -282 85 -91 321 -333 525 -538 355
-357 372 -372 407 -372 39 0 58 19 58 57 0 10 -94 112 -221 238 -195 195
-1060 1098 -1066 1114 -5 11 137 171 189 212 41 32 57 39 77 34 59 -14 189
-17 265 -6 78 12 84 11 156 -15 174 -62 266 -120 377 -238 39 -41 82 -78 96
-81 63 -16 138 30 180 110 26 49 28 165 4 212 -54 103 -169 193 -362 282 -79
37 -85 42 -85 69 0 43 74 184 123 235 52 53 154 111 491 278 143 72 275 140
293 152 44 30 67 84 61 142 -9 79 -69 125 -163 125 -80 0 -185 -38 -407 -147
-105 -51 -193 -92 -195 -89 -2 2 33 34 79 72 112 92 321 297 370 362 48 65 78
133 78 178 0 42 -23 89 -49 104 -32 16 -148 12 -189 -7 -21 -9 -112 -90 -203
-180 -91 -90 -169 -163 -173 -163 -4 0 31 43 78 96 131 149 195 243 202 297 4
28 2 57 -5 74 -17 38 -63 73 -105 80 -47 7 -153 -46 -227 -114 -59 -55 -75
-64 -65 -37 12 30 -6 85 -39 120 -29 30 -38 34 -81 33 -31 0 -71 -11 -109 -29z
m-2357 -144 c46 -24 113 -103 279 -323 145 -192 263 -334 365 -434 73 -73 184
-262 213 -364 30 -104 76 -228 103 -275 14 -25 52 -73 85 -107 l60 -63 -109
-116 c-60 -64 -134 -144 -165 -177 l-56 -62 -28 35 c-61 75 -153 156 -207 184
-47 23 -66 27 -100 22 -115 -16 -167 -18 -248 -6 l-87 13 -124 -42 c-157 -53
-264 -115 -379 -219 -49 -46 -94 -81 -99 -78 -23 15 -33 77 -21 122 20 69 95
130 269 215 80 39 153 81 163 93 49 58 42 144 -24 276 -72 146 -178 235 -390
330 -51 23 -131 64 -178 90 -47 27 -134 70 -194 97 -172 76 -213 130 -92 121
69 -6 152 -39 319 -129 154 -83 298 -139 373 -146 58 -5 64 -4 88 20 31 31 34
79 7 120 -20 31 -140 141 -221 202 -127 96 -348 329 -378 398 -17 38 -16 40
15 32 40 -10 98 -59 267 -227 206 -205 401 -348 473 -348 41 0 73 30 73 68 0
45 -61 127 -279 381 -188 218 -240 285 -227 298 29 29 227 -147 442 -393 155
-178 216 -234 255 -234 36 0 69 32 69 67 0 41 -165 306 -302 484 -32 42 -58
79 -58 82 0 11 19 8 48 -7z"/>
<path d="M16900 1330 c0 -263 0 -270 20 -270 20 0 20 7 20 270 0 263 0 270
-20 270 -20 0 -20 -7 -20 -270z"/>
<path d="M17060 1330 c0 -263 0 -270 20 -270 20 0 20 7 20 270 0 263 0 270
-20 270 -20 0 -20 -7 -20 -270z"/>
<path d="M17640 1493 l0 -106 -23 21 c-46 44 -121 50 -175 14 -90 -59 -87
-287 5 -347 38 -25 118 -23 154 4 35 26 39 26 39 1 0 -13 7 -20 20 -20 20 0
20 7 20 270 0 263 0 270 -20 270 -19 0 -20 -7 -20 -107z m-34 -117 c34 -34 34
-34 34 -127 -1 -58 -5 -100 -13 -109 -23 -30 -62 -50 -97 -50 -73 0 -114 58
-113 160 0 105 40 160 116 160 31 0 46 -7 73 -34z"/>
<path d="M16577 1528 c-8 -24 -43 -115 -77 -203 -34 -88 -70 -184 -81 -213
l-18 -53 22 3 c17 2 27 17 46 71 l24 68 119 -3 120 -3 25 -67 c19 -51 30 -68
44 -68 11 0 19 3 19 8 0 4 -42 117 -93 252 -78 207 -95 245 -113 248 -18 3
-25 -5 -37 -40z m88 -148 c25 -68 45 -127 45 -132 0 -4 -45 -8 -101 -8 -92 0
-101 2 -94 18 4 9 22 58 40 107 49 135 55 148 60 143 3 -3 25 -60 50 -128z"/>
<path d="M17890 1438 c-43 -12 -88 -52 -106 -95 -8 -18 -14 -60 -14 -93 0 -71
16 -114 58 -153 79 -74 215 -43 258 59 21 51 18 150 -7 200 -33 69 -113 104
-189 82z m108 -48 c42 -26 62 -73 62 -148 0 -45 -5 -67 -23 -93 -54 -80 -150
-79 -205 1 -21 30 -23 44 -20 107 2 53 9 79 24 100 41 55 104 68 162 33z"/>
<path d="M18315 1435 c-22 -8 -48 -24 -57 -35 -17 -20 -17 -20 -20 7 -2 17
-10 29 -20 31 -17 3 -18 -11 -18 -187 0 -184 1 -191 20 -191 19 0 20 7 20 138
0 151 6 169 60 197 44 23 87 19 115 -10 24 -23 25 -28 25 -175 0 -143 1 -150
20 -150 19 0 20 7 20 145 0 172 -10 208 -64 230 -43 18 -50 18 -101 0z"/>
<path d="M18688 1440 c-79 -24 -121 -92 -121 -195 1 -102 52 -172 139 -188 44
-8 104 8 132 36 36 37 19 51 -26 21 -76 -53 -177 -13 -200 79 -6 22 -9 44 -6
49 3 4 63 8 135 8 l129 0 0 41 c0 104 -90 178 -182 149z m108 -64 c24 -24 34
-43 34 -65 l0 -31 -110 0 c-123 0 -125 1 -94 66 19 41 56 63 103 64 25 0 42
-9 67 -34z"/>
<path d="M22169 783 l-24 -28 28 24 c15 14 27 26 27 28 0 8 -8 1 -31 -24z"/>
</g>
</svg>
