solid OpenSCAD_Model
  facet normal -0.6234898018587373 -1.3836536195400314e-17 -0.7818314824680268
    outer loop
      vertex 173.91455884429263 0 2.4220029456248113
      vertex 172.47285698465717 -3 3.5717218133863753
      vertex 172.47285698465717 0 3.5717218133863753
    endloop
  endfacet
  facet normal 0.2225209339563154 0 0.9749279121818233
    outer loop
      vertex 172.47285698465717 -3 -0.5717218133863753
      vertex 172.47285698465717 0 -0.5717218133863753
      vertex 170.6750841710502 0 -0.1613919002445634
    endloop
  endfacet
  facet normal 0.2225209339563154 0 0.9749279121818233
    outer loop
      vertex 170.6750841710502 -3 -0.1613919002445634
      vertex 172.47285698465717 -3 -0.5717218133863753
      vertex 170.6750841710502 0 -0.1613919002445634
    endloop
  endfacet
  facet normal -0.6234898018587373 0 0.7818314824680268
    outer loop
      vertex 172.47285698465717 0 -0.5717218133863753
      vertex 172.47285698465717 -3 -0.5717218133863753
      vertex 173.91455884429263 -3 0.5779970543751887
    endloop
  endfacet
  facet normal 0.9009688679024169 0 0.4338837391175627
    outer loop
      vertex 170.6750841710502 0 -0.1613919002445634
      vertex 169.875 0 1.5
      vertex 170.6750841710502 -3 -0.1613919002445634
    endloop
  endfacet
  facet normal -0.6234898018587373 0 0.7818314824680268
    outer loop
      vertex 173.91455884429263 0 0.5779970543751887
      vertex 172.47285698465717 0 -0.5717218133863753
      vertex 173.91455884429263 -3 0.5779970543751887
    endloop
  endfacet
  facet normal 0.9009688679024169 0 0.4338837391175627
    outer loop
      vertex 169.875 -3 1.5
      vertex 170.6750841710502 -3 -0.1613919002445634
      vertex 169.875 0 1.5
    endloop
  endfacet
  facet normal -1 0 0
    outer loop
      vertex 173.91455884429263 0 0.5779970543751887
      vertex 173.91455884429263 -3 0.5779970543751887
      vertex 173.91455884429263 -3 2.4220029456248113
    endloop
  endfacet
  facet normal 0.9009688679024169 0 -0.4338837391175627
    outer loop
      vertex 169.875 0 1.5
      vertex 170.6750841710502 0 3.1613919002445634
      vertex 169.875 -3 1.5
    endloop
  endfacet
  facet normal -1 0 0
    outer loop
      vertex 173.91455884429263 0 2.4220029456248113
      vertex 173.91455884429263 0 0.5779970543751887
      vertex 173.91455884429263 -3 2.4220029456248113
    endloop
  endfacet
  facet normal 0.9009688679024169 0 -0.4338837391175627
    outer loop
      vertex 170.6750841710502 -3 3.1613919002445634
      vertex 169.875 -3 1.5
      vertex 170.6750841710502 0 3.1613919002445634
    endloop
  endfacet
  facet normal -0.6234898018587373 0 -0.7818314824680268
    outer loop
      vertex 173.91455884429263 0 2.4220029456248113
      vertex 173.91455884429263 -3 2.4220029456248113
      vertex 172.47285698465717 -3 3.5717218133863753
    endloop
  endfacet
  facet normal 0.2225209339563154 0 -0.9749279121818233
    outer loop
      vertex 172.47285698465717 0 3.5717218133863753
      vertex 172.47285698465717 -3 3.5717218133863753
      vertex 170.6750841710502 -3 3.1613919002445634
    endloop
  endfacet
  facet normal 0.2225209339563154 0 -0.9749279121818233
    outer loop
      vertex 170.6750841710502 -3 3.1613919002445634
      vertex 170.6750841710502 0 3.1613919002445634
      vertex 172.47285698465717 0 3.5717218133863753
    endloop
  endfacet
  facet normal -0.9009688679024191 0 -0.43388373911755795
    outer loop
      vertex -15.875 0 1.5
      vertex -15.875 -3 1.5
      vertex -16.67508417105019 0 3.1613919002445634
    endloop
  endfacet
  facet normal -0.2225209339563146 0 0.9749279121818236
    outer loop
      vertex -16.67508417105019 0 -0.1613919002445634
      vertex -18.472856984657167 -3 -0.5717218133863753
      vertex -16.67508417105019 -3 -0.1613919002445634
    endloop
  endfacet
  facet normal 0.6234898018587335 0 0.7818314824680298
    outer loop
      vertex -19.91455884429264 -3 0.5779970543751887
      vertex -18.472856984657167 0 -0.5717218133863753
      vertex -19.91455884429264 0 0.5779970543751887
    endloop
  endfacet
  facet normal 0.6234898018587335 2.940881528084806e-18 0.7818314824680298
    outer loop
      vertex -19.91455884429264 -3 0.5779970543751887
      vertex -18.472856984657167 -3 -0.5717218133863753
      vertex -18.472856984657167 0 -0.5717218133863753
    endloop
  endfacet
  facet normal -0.9009688679024191 0 0.43388373911755795
    outer loop
      vertex -16.67508417105019 0 -0.1613919002445634
      vertex -16.67508417105019 -3 -0.1613919002445634
      vertex -15.875 0 1.5
    endloop
  endfacet
  facet normal -0.2225209339563146 -7.230286760572895e-18 0.9749279121818236
    outer loop
      vertex -16.67508417105019 0 -0.1613919002445634
      vertex -18.472856984657167 0 -0.5717218133863753
      vertex -18.472856984657167 -3 -0.5717218133863753
    endloop
  endfacet
  facet normal -0.22252093395631414 0 -0.9749279121818236
    outer loop
      vertex -16.67508417105019 0 3.1613919002445634
      vertex -16.67508417105019 -3 3.1613919002445634
      vertex -18.47285698465717 0 3.5717218133863753
    endloop
  endfacet
  facet normal 1 0 0
    outer loop
      vertex -19.91455884429264 -3 2.4220029456248113
      vertex -19.91455884429264 -3 0.5779970543751887
      vertex -19.91455884429264 0 0.5779970543751887
    endloop
  endfacet
  facet normal -0.9009688679024191 0 0.43388373911755795
    outer loop
      vertex -15.875 0 1.5
      vertex -16.67508417105019 -3 -0.1613919002445634
      vertex -15.875 -3 1.5
    endloop
  endfacet
  facet normal -0.22252093395631414 4.610128243000689e-18 -0.9749279121818236
    outer loop
      vertex -16.67508417105019 -3 3.1613919002445634
      vertex -18.47285698465717 -3 3.5717218133863753
      vertex -18.47285698465717 0 3.5717218133863753
    endloop
  endfacet
  facet normal 0.6234898018587345 0 -0.7818314824680291
    outer loop
      vertex -18.47285698465717 -3 3.5717218133863753
      vertex -19.91455884429264 0 2.4220029456248113
      vertex -18.47285698465717 0 3.5717218133863753
    endloop
  endfacet
  facet normal 1 0 0
    outer loop
      vertex -19.91455884429264 -3 2.4220029456248113
      vertex -19.91455884429264 0 0.5779970543751887
      vertex -19.91455884429264 0 2.4220029456248113
    endloop
  endfacet
  facet normal 0.6234898018587345 0 -0.7818314824680291
    outer loop
      vertex -19.91455884429264 0 2.4220029456248113
      vertex -18.47285698465717 -3 3.5717218133863753
      vertex -19.91455884429264 -3 2.4220029456248113
    endloop
  endfacet
  facet normal -0.9009688679024191 0 -0.43388373911755795
    outer loop
      vertex -16.67508417105019 -3 3.1613919002445634
      vertex -16.67508417105019 0 3.1613919002445634
      vertex -15.875 -3 1.5
    endloop
  endfacet
  facet normal 0.9009688679024169 0 0.4338837391175627
    outer loop
      vertex 169.875 -3 11.5
      vertex 170.6750841710502 -3 9.838608099755437
      vertex 169.875 0 11.5
    endloop
  endfacet
  facet normal -0.6234898018587373 0 0.7818314824680268
    outer loop
      vertex 172.47285698465717 0 9.428278186613625
      vertex 172.47285698465717 -3 9.428278186613625
      vertex 173.91455884429263 -3 10.577997054375189
    endloop
  endfacet
  facet normal 0.2225209339563154 0 -0.9749279121818233
    outer loop
      vertex 172.47285698465717 0 13.571721813386375
      vertex 172.47285698465717 -3 13.571721813386375
      vertex 170.6750841710502 -3 13.161391900244563
    endloop
  endfacet
  facet normal -0.6234898018587373 0 0.7818314824680268
    outer loop
      vertex 173.91455884429263 0 10.577997054375189
      vertex 172.47285698465717 0 9.428278186613625
      vertex 173.91455884429263 -3 10.577997054375189
    endloop
  endfacet
  facet normal 0.9009688679024169 1.9339583217001305e-17 0.4338837391175627
    outer loop
      vertex 169.875 0 11.5
      vertex 170.6750841710502 -3 9.838608099755437
      vertex 170.6750841710502 0 9.838608099755437
    endloop
  endfacet
  facet normal -0.6234898018587373 0 -0.7818314824680268
    outer loop
      vertex 172.47285698465717 -3 13.571721813386375
      vertex 172.47285698465717 0 13.571721813386375
      vertex 173.91455884429263 0 12.422002945624811
    endloop
  endfacet
  facet normal -1 0 0
    outer loop
      vertex 173.91455884429263 0 10.577997054375189
      vertex 173.91455884429263 -3 10.577997054375189
      vertex 173.91455884429263 -3 12.422002945624811
    endloop
  endfacet
  facet normal 0.2225209339563154 0 -0.9749279121818233
    outer loop
      vertex 170.6750841710502 -3 13.161391900244563
      vertex 170.6750841710502 0 13.161391900244563
      vertex 172.47285698465717 0 13.571721813386375
    endloop
  endfacet
  facet normal -0.6234898018587373 0 -0.7818314824680268
    outer loop
      vertex 173.91455884429263 0 12.422002945624811
      vertex 173.91455884429263 -3 12.422002945624811
      vertex 172.47285698465717 -3 13.571721813386375
    endloop
  endfacet
  facet normal 0.2225209339563154 -7.598439546163382e-18 0.9749279121818233
    outer loop
      vertex 170.6750841710502 0 9.838608099755437
      vertex 172.47285698465717 -3 9.428278186613625
      vertex 172.47285698465717 0 9.428278186613625
    endloop
  endfacet
  facet normal 0.2225209339563154 0 0.9749279121818233
    outer loop
      vertex 170.6750841710502 -3 9.838608099755437
      vertex 172.47285698465717 -3 9.428278186613625
      vertex 170.6750841710502 0 9.838608099755437
    endloop
  endfacet
  facet normal 0.9009688679024169 0 -0.4338837391175627
    outer loop
      vertex 169.875 0 11.5
      vertex 170.6750841710502 0 13.161391900244563
      vertex 169.875 -3 11.5
    endloop
  endfacet
  facet normal -1 0 0
    outer loop
      vertex 173.91455884429263 0 10.577997054375189
      vertex 173.91455884429263 -3 12.422002945624811
      vertex 173.91455884429263 0 12.422002945624811
    endloop
  endfacet
  facet normal 0.9009688679024169 0 -0.4338837391175627
    outer loop
      vertex 170.6750841710502 -3 13.161391900244563
      vertex 169.875 -3 11.5
      vertex 170.6750841710502 0 13.161391900244563
    endloop
  endfacet
  facet normal -0.9009688679024191 0 -0.43388373911755795
    outer loop
      vertex -15.875 0 11.5
      vertex -15.875 -3 11.5
      vertex -16.67508417105019 0 13.161391900244563
    endloop
  endfacet
  facet normal 1 0 0
    outer loop
      vertex -19.91455884429264 -3 12.422002945624811
      vertex -19.91455884429264 0 10.577997054375189
      vertex -19.91455884429264 0 12.422002945624811
    endloop
  endfacet
  facet normal 0.6234898018587345 0 -0.7818314824680291
    outer loop
      vertex -19.91455884429264 -3 12.422002945624811
      vertex -19.91455884429264 0 12.422002945624811
      vertex -18.47285698465717 -3 13.571721813386375
    endloop
  endfacet
  facet normal -0.9009688679024191 0 -0.43388373911755795
    outer loop
      vertex -16.67508417105019 0 13.161391900244563
      vertex -15.875 -3 11.5
      vertex -16.67508417105019 -3 13.161391900244563
    endloop
  endfacet
  facet normal 0.6234898018587345 0 -0.7818314824680291
    outer loop
      vertex -18.47285698465717 -3 13.571721813386375
      vertex -19.91455884429264 0 12.422002945624811
      vertex -18.47285698465717 0 13.571721813386375
    endloop
  endfacet
  facet normal -0.22252093395631414 0 -0.9749279121818236
    outer loop
      vertex -16.67508417105019 0 13.161391900244563
      vertex -16.67508417105019 -3 13.161391900244563
      vertex -18.47285698465717 0 13.571721813386375
    endloop
  endfacet
  facet normal -0.22252093395631414 0 -0.9749279121818236
    outer loop
      vertex -18.47285698465717 0 13.571721813386375
      vertex -16.67508417105019 -3 13.161391900244563
      vertex -18.47285698465717 -3 13.571721813386375
    endloop
  endfacet
  facet normal -0.9009688679024191 0 0.43388373911755795
    outer loop
      vertex -15.875 0 11.5
      vertex -16.67508417105019 -3 9.838608099755437
      vertex -15.875 -3 11.5
    endloop
  endfacet
  facet normal 1 0 0
    outer loop
      vertex -19.91455884429264 -3 10.577997054375189
      vertex -19.91455884429264 0 10.577997054375189
      vertex -19.91455884429264 -3 12.422002945624811
    endloop
  endfacet
  facet normal -0.9009688679024191 -9.177069686426596e-18 0.43388373911755795
    outer loop
      vertex -15.875 0 11.5
      vertex -16.67508417105019 0 9.838608099755437
      vertex -16.67508417105019 -3 9.838608099755437
    endloop
  endfacet
  facet normal 0.6234898018587335 0 0.7818314824680298
    outer loop
      vertex -19.91455884429264 -3 10.577997054375189
      vertex -18.472856984657167 0 9.428278186613625
      vertex -19.91455884429264 0 10.577997054375189
    endloop
  endfacet
  facet normal 0.6234898018587335 2.940881528084806e-18 0.7818314824680298
    outer loop
      vertex -19.91455884429264 -3 10.577997054375189
      vertex -18.472856984657167 -3 9.428278186613625
      vertex -18.472856984657167 0 9.428278186613625
    endloop
  endfacet
  facet normal -0.2225209339563146 0 0.9749279121818236
    outer loop
      vertex -16.67508417105019 0 9.838608099755437
      vertex -18.472856984657167 -3 9.428278186613625
      vertex -16.67508417105019 -3 9.838608099755437
    endloop
  endfacet
  facet normal -0.2225209339563146 -7.230286760572895e-18 0.9749279121818236
    outer loop
      vertex -16.67508417105019 0 9.838608099755437
      vertex -18.472856984657167 0 9.428278186613625
      vertex -18.472856984657167 -3 9.428278186613625
    endloop
  endfacet
  facet normal 0 -1 0
    outer loop
      vertex -15.875 -3 1.5
      vertex -3 -3 -3
      vertex -18.472856984657167 -3 9.428278186613625
    endloop
  endfacet
  facet normal 0 0 -1
    outer loop
      vertex -22.5 -3 -3
      vertex -12 0 -3
      vertex -9 0 -3
    endloop
  endfacet
  facet normal 0 1 0
    outer loop
      vertex -18.47285698465717 0 3.5717218133863753
      vertex -19.91455884429264 0 2.4220029456248113
      vertex -12 0 16
    endloop
  endfacet
  facet normal 0 1 0
    outer loop
      vertex -12 0 16
      vertex -15.875 0 1.5
      vertex -16.67508417105019 0 3.1613919002445634
    endloop
  endfacet
  facet normal 0 1 0
    outer loop
      vertex -12 0 16
      vertex -16.67508417105019 0 3.1613919002445634
      vertex -18.47285698465717 0 3.5717218133863753
    endloop
  endfacet
  facet normal 0 -1 0
    outer loop
      vertex -19.91455884429264 -3 10.577997054375189
      vertex -18.47285698465717 -3 3.5717218133863753
      vertex -18.472856984657167 -3 9.428278186613625
    endloop
  endfacet
  facet normal 0 1 0
    outer loop
      vertex -16.67508417105019 0 9.838608099755437
      vertex -15.875 0 11.5
      vertex -19.91455884429264 0 2.4220029456248113
    endloop
  endfacet
  facet normal 0 -1 0
    outer loop
      vertex -16.67508417105019 -3 9.838608099755437
      vertex -3 -3 -3
      vertex -3 -3 16
    endloop
  endfacet
  facet normal 0 1 0
    outer loop
      vertex -19.91455884429264 0 2.4220029456248113
      vertex -19.91455884429264 0 10.577997054375189
      vertex -18.472856984657167 0 9.428278186613625
    endloop
  endfacet
  facet normal -1 0 0
    outer loop
      vertex -22.5 0 16
      vertex -22.5 -3 -3
      vertex -22.5 -3 16
    endloop
  endfacet
  facet normal 0 -1 0
    outer loop
      vertex -22.5 -3 16
      vertex -19.91455884429264 -3 2.4220029456248113
      vertex -19.91455884429264 -3 10.577997054375189
    endloop
  endfacet
  facet normal 0 1 0
    outer loop
      vertex -19.91455884429264 0 10.577997054375189
      vertex -19.91455884429264 0 2.4220029456248113
      vertex -22.5 0 16
    endloop
  endfacet
  facet normal 0 0 -1
    outer loop
      vertex -9 0 -3
      vertex -3 0 -3
      vertex -22.5 -3 -3
    endloop
  endfacet
  facet normal 0 -1 0
    outer loop
      vertex -22.5 -3 -3
      vertex -3 -3 -3
      vertex -18.472856984657167 -3 -0.5717218133863753
    endloop
  endfacet
  facet normal 0 -1 0
    outer loop
      vertex -22.5 -3 -3
      vertex -18.472856984657167 -3 -0.5717218133863753
      vertex -19.91455884429264 -3 0.5779970543751887
    endloop
  endfacet
  facet normal 0 1 0
    outer loop
      vertex -12 0 16
      vertex -19.91455884429264 0 2.4220029456248113
      vertex -15.875 0 11.5
    endloop
  endfacet
  facet normal 0 1 0
    outer loop
      vertex -12 0 -3
      vertex -22.5 0 -3
      vertex -18.472856984657167 0 -0.5717218133863753
    endloop
  endfacet
  facet normal 0 1 0
    outer loop
      vertex -18.472856984657167 0 -0.5717218133863753
      vertex -22.5 0 -3
      vertex -19.91455884429264 0 0.5779970543751887
    endloop
  endfacet
  facet normal 0 1 0
    outer loop
      vertex -12 0 -3
      vertex -18.472856984657167 0 -0.5717218133863753
      vertex -16.67508417105019 0 -0.1613919002445634
    endloop
  endfacet
  facet normal 0 -1 0
    outer loop
      vertex -18.472856984657167 -3 -0.5717218133863753
      vertex -3 -3 -3
      vertex -16.67508417105019 -3 -0.1613919002445634
    endloop
  endfacet
  facet normal 0 0 -1
    outer loop
      vertex -3 -3 -3
      vertex -22.5 -3 -3
      vertex -3 0 -3
    endloop
  endfacet
  facet normal 0 1 0
    outer loop
      vertex -3 0 16
      vertex -9 0 -3
      vertex -9 0 16
    endloop
  endfacet
  facet normal 0 -1 0
    outer loop
      vertex -22.5 -3 -3
      vertex -19.91455884429264 -3 0.5779970543751887
      vertex -19.91455884429264 -3 2.4220029456248113
    endloop
  endfacet
  facet normal 0 1 0
    outer loop
      vertex -19.91455884429264 0 0.5779970543751887
      vertex -22.5 0 -3
      vertex -19.91455884429264 0 2.4220029456248113
    endloop
  endfacet
  facet normal 0 1 0
    outer loop
      vertex -12 0 -3
      vertex -16.67508417105019 0 -0.1613919002445634
      vertex -15.875 0 1.5
    endloop
  endfacet
  facet normal 0 -1 0
    outer loop
      vertex -18.472856984657167 -3 9.428278186613625
      vertex -3 -3 -3
      vertex -16.67508417105019 -3 9.838608099755437
    endloop
  endfacet
  facet normal 0 -1 0
    outer loop
      vertex -18.47285698465717 -3 3.5717218133863753
      vertex -16.67508417105019 -3 3.1613919002445634
      vertex -18.472856984657167 -3 9.428278186613625
    endloop
  endfacet
  facet normal 0 -1 0
    outer loop
      vertex -22.5 -3 16
      vertex -19.91455884429264 -3 10.577997054375189
      vertex -19.91455884429264 -3 12.422002945624811
    endloop
  endfacet
  facet normal 0 1 0
    outer loop
      vertex -19.91455884429264 0 12.422002945624811
      vertex -19.91455884429264 0 10.577997054375189
      vertex -22.5 0 16
    endloop
  endfacet
  facet normal 0 -1 0
    outer loop
      vertex -19.91455884429264 -3 2.4220029456248113
      vertex -18.47285698465717 -3 3.5717218133863753
      vertex -19.91455884429264 -3 10.577997054375189
    endloop
  endfacet
  facet normal 0 1 0
    outer loop
      vertex -12 0 -3
      vertex -15.875 0 1.5
      vertex -12 0 16
    endloop
  endfacet
  facet normal 0 1 0
    outer loop
      vertex -19.91455884429264 0 2.4220029456248113
      vertex -22.5 0 -3
      vertex -22.5 0 16
    endloop
  endfacet
  facet normal 0 -1 0
    outer loop
      vertex -19.91455884429264 -3 2.4220029456248113
      vertex -22.5 -3 16
      vertex -22.5 -3 -3
    endloop
  endfacet
  facet normal 0 -1 0
    outer loop
      vertex -15.875 -3 11.5
      vertex -16.67508417105019 -3 9.838608099755437
      vertex -3 -3 16
    endloop
  endfacet
  facet normal 0 1 0
    outer loop
      vertex -12 0 16
      vertex -15.875 0 11.5
      vertex -16.67508417105019 0 13.161391900244563
    endloop
  endfacet
  facet normal 0 -1 0
    outer loop
      vertex -16.67508417105019 -3 13.161391900244563
      vertex -15.875 -3 11.5
      vertex -3 -3 16
    endloop
  endfacet
  facet normal 0 -1 0
    outer loop
      vertex -22.5 -3 16
      vertex -19.91455884429264 -3 12.422002945624811
      vertex -18.47285698465717 -3 13.571721813386375
    endloop
  endfacet
  facet normal 0 1 0
    outer loop
      vertex -18.47285698465717 0 13.571721813386375
      vertex -19.91455884429264 0 12.422002945624811
      vertex -22.5 0 16
    endloop
  endfacet
  facet normal 0 1 0
    outer loop
      vertex -12 0 16
      vertex -16.67508417105019 0 13.161391900244563
      vertex -18.47285698465717 0 13.571721813386375
    endloop
  endfacet
  facet normal 0 -1 0
    outer loop
      vertex -18.47285698465717 -3 13.571721813386375
      vertex -16.67508417105019 -3 13.161391900244563
      vertex -3 -3 16
    endloop
  endfacet
  facet normal 0 1 0
    outer loop
      vertex -12 0 16
      vertex -18.47285698465717 0 13.571721813386375
      vertex -22.5 0 16
    endloop
  endfacet
  facet normal 0 -1 0
    outer loop
      vertex -22.5 -3 16
      vertex -18.47285698465717 -3 13.571721813386375
      vertex -3 -3 16
    endloop
  endfacet
  facet normal 0 0 1
    outer loop
      vertex -22.5 0 16
      vertex -22.5 -3 16
      vertex -3 -3 16
    endloop
  endfacet
  facet normal 0 0 1
    outer loop
      vertex -12 0 16
      vertex -22.5 0 16
      vertex -3 -3 16
    endloop
  endfacet
  facet normal 0 0 -1
    outer loop
      vertex -22.5 -3 -3
      vertex -22.5 0 -3
      vertex -12 0 -3
    endloop
  endfacet
  facet normal 0 0 1
    outer loop
      vertex -9 0 16
      vertex -12 0 16
      vertex -3 -3 16
    endloop
  endfacet
  facet normal 0 -1 0
    outer loop
      vertex -16.67508417105019 -3 3.1613919002445634
      vertex -15.875 -3 1.5
      vertex -18.472856984657167 -3 9.428278186613625
    endloop
  endfacet
  facet normal 0 0 1
    outer loop
      vertex -3 0 16
      vertex -9 0 16
      vertex -3 -3 16
    endloop
  endfacet
  facet normal 0 1 0
    outer loop
      vertex -3 0 -3
      vertex -9 0 -3
      vertex -3 0 16
    endloop
  endfacet
  facet normal 0 -1 0
    outer loop
      vertex -16.67508417105019 -3 -0.1613919002445634
      vertex -3 -3 -3
      vertex -15.875 -3 1.5
    endloop
  endfacet
  facet normal -1 0 0
    outer loop
      vertex -22.5 0 -3
      vertex -22.5 -3 -3
      vertex -22.5 0 16
    endloop
  endfacet
  facet normal 0 1 0
    outer loop
      vertex -18.472856984657167 0 9.428278186613625
      vertex -16.67508417105019 0 9.838608099755437
      vertex -19.91455884429264 0 2.4220029456248113
    endloop
  endfacet
  facet normal -1 0 0
    outer loop
      vertex -3 90.66666666666667 6.666666666666666
      vertex -3 0 16
      vertex -3 90.66733333333335 6.666666666666666
    endloop
  endfacet
  facet normal 0 0 1
    outer loop
      vertex -3 0 16
      vertex 0 -3 16
      vertex 0 0 16
    endloop
  endfacet
  facet normal 0 0 -1
    outer loop
      vertex -3 -3 -3
      vertex -3 0 -3
      vertex 0 -3 -3
    endloop
  endfacet
  facet normal 0 0.1023993004330417 0.9947433755852932
    outer loop
      vertex -3 0 16
      vertex 0 0 16
      vertex 0 136.001 2
    endloop
  endfacet
  facet normal 1 0 0
    outer loop
      vertex 0 0 16
      vertex 0 -3 16
      vertex 0 136.001 2
    endloop
  endfacet
  facet normal 0 -1 0
    outer loop
      vertex -3 -3 -3
      vertex 0 -3 -3
      vertex 0 -3 0
    endloop
  endfacet
  facet normal 0 0 -1
    outer loop
      vertex 0 136 -3
      vertex 0 -3 -3
      vertex -3 90.66666666666667 -3
    endloop
  endfacet
  facet normal 0 -1 0
    outer loop
      vertex -3 -3 -3
      vertex 0 -3 0
      vertex 0 -3 2
    endloop
  endfacet
  facet normal 0 0 -1
    outer loop
      vertex 0 -3 -3
      vertex -3 0 -3
      vertex -3 90.66666666666667 -3
    endloop
  endfacet
  facet normal 1 0 0
    outer loop
      vertex 0 -3 16
      vertex 0 136 0
      vertex 0 136 2
    endloop
  endfacet
  facet normal 0 -1 0
    outer loop
      vertex -3 -3 -3
      vertex 0 -3 2
      vertex 0 -3 16
    endloop
  endfacet
  facet normal -1 0 0
    outer loop
      vertex -3 90.66666666666667 -3
      vertex -3 0 -3
      vertex -3 0 16
    endloop
  endfacet
  facet normal 1 0 0
    outer loop
      vertex 0 0 2
      vertex 0 0 0
      vertex 0 136 0
    endloop
  endfacet
  facet normal 1 0 0
    outer loop
      vertex 0 0 2
      vertex 0 136 0
      vertex 0 -3 16
    endloop
  endfacet
  facet normal 1 0 0
    outer loop
      vertex 0 -3 16
      vertex 0 -3 2
      vertex 0 0 2
    endloop
  endfacet
  facet normal 0 -1 0
    outer loop
      vertex -3 -3 16
      vertex -3 -3 -3
      vertex 0 -3 16
    endloop
  endfacet
  facet normal 1 0 0
    outer loop
      vertex 0 136.001 2
      vertex 0 -3 16
      vertex 0 136 2
    endloop
  endfacet
  facet normal 2.194306995932983e-16 0.10239930043304168 0.9947433755852932
    outer loop
      vertex -3 90.66733333333335 6.666666666666666
      vertex -3 0 16
      vertex 0 136.001 2
    endloop
  endfacet
  facet normal 0 0 1
    outer loop
      vertex -3 0 16
      vertex -3 -3 16
      vertex 0 -3 16
    endloop
  endfacet
  facet normal -1 0 0
    outer loop
      vertex -3 90.66666666666667 -3
      vertex -3 0 16
      vertex -3 90.66666666666667 6.666666666666666
    endloop
  endfacet
  facet normal -1 0 0
    outer loop
      vertex -12 0.0009999999999998899 16
      vertex -12 0 -3
      vertex -12 0 16
    endloop
  endfacet
  facet normal 0 0.10240004547398948 0.9947432988901834
    outer loop
      vertex -9 0.0009999999999998899 16
      vertex 0 136.001 2
      vertex -12 0.0009999999999998899 16
    endloop
  endfacet
  facet normal 0.8411784753765535 0 0.5407575913134987
    outer loop
      vertex -3 90.66733333333335 6.666666666666666
      vertex -9 0 16
      vertex -3 90.66666666666667 6.666666666666666
    endloop
  endfacet
  facet normal 0 0 -1
    outer loop
      vertex -3 90.66666666666667 -3
      vertex -9 0 -3
      vertex -3 136.001 -3
    endloop
  endfacet
  facet normal 0.8411784753807982 -1.2807712610644332e-12 0.540757591306896
    outer loop
      vertex 0 136.001 2
      vertex -9 0.0009999999999998899 16
      vertex -3 90.66733333333335 6.666666666666666
    endloop
  endfacet
  facet normal -0.997817503157556 0.06603204065013238 0
    outer loop
      vertex -3 136.001 -3
      vertex -12 0.0009999999999998899 16
      vertex -3 136.001 0
    endloop
  endfacet
  facet normal 0 0.10240004547398948 0.9947432988901834
    outer loop
      vertex -3 136.001 2
      vertex -12 0.0009999999999998899 16
      vertex 0 136.001 2
    endloop
  endfacet
  facet normal -0.997817503157556 0.06603204065013238 0
    outer loop
      vertex -3 136.001 0
      vertex -12 0.0009999999999998899 16
      vertex -3 136.001 2
    endloop
  endfacet
  facet normal 0 0 1
    outer loop
      vertex -12 0.0009999999999998899 16
      vertex -9 0 16
      vertex -9 0.0009999999999998899 16
    endloop
  endfacet
  facet normal 0 0 1
    outer loop
      vertex -12 0.0009999999999998899 16
      vertex -12 0 16
      vertex -9 0 16
    endloop
  endfacet
  facet normal 0.997817503157556 -0.06603204065013238 0
    outer loop
      vertex -9 0 16
      vertex -9 0 -3
      vertex -3 90.66666666666667 6.666666666666666
    endloop
  endfacet
  facet normal -1 0 0
    outer loop
      vertex -12 0 -3
      vertex -12 0.0009999999999998899 16
      vertex -12 0.0009999999999998899 -3
    endloop
  endfacet
  facet normal 0 0 -1
    outer loop
      vertex 0 136 -3
      vertex -3 90.66666666666667 -3
      vertex -3 136.001 -3
    endloop
  endfacet
  facet normal 0 0 -1
    outer loop
      vertex -12 0 -3
      vertex -12 0.0009999999999998899 -3
      vertex -3 136.001 -3
    endloop
  endfacet
  facet normal 0 0 -1
    outer loop
      vertex -9 0 -3
      vertex -12 0 -3
      vertex -3 136.001 -3
    endloop
  endfacet
  facet normal 0.997817503157556 -0.06603204065013238 3.235764607680497e-17
    outer loop
      vertex -9 0 -3
      vertex -3 90.66666666666667 -3
      vertex -3 90.66666666666667 6.666666666666666
    endloop
  endfacet
  facet normal -0.9978175031575559 0.06603204065013238 0
    outer loop
      vertex -3 136.001 -3
      vertex -12 0.0009999999999998899 -3
      vertex -12 0.0009999999999998899 16
    endloop
  endfacet
  facet normal 0.8411784753765535 0 0.5407575913134987
    outer loop
      vertex -9 0.0009999999999998899 16
      vertex -9 0 16
      vertex -3 90.66733333333335 6.666666666666666
    endloop
  endfacet
  facet normal 0 -1 0
    outer loop
      vertex 176.5 -3 16
      vertex 170.6750841710502 -3 13.161391900244563
      vertex 172.47285698465717 -3 13.571721813386375
    endloop
  endfacet
  facet normal 0 -1 0
    outer loop
      vertex 125 -3 16
      vertex 125 -3 -3
      vertex 176.5 -3 16
    endloop
  endfacet
  facet normal 1 0 0
    outer loop
      vertex 176.5 -3 16
      vertex 176.5 -3 -3
      vertex 176.5 0 16
    endloop
  endfacet
  facet normal 0 0 -1
    outer loop
      vertex 125 -3 -3
      vertex 125 0 -3
      vertex 176.5 -3 -3
    endloop
  endfacet
  facet normal 0 0 -1
    outer loop
      vertex 176.5 -3 -3
      vertex 125 0 -3
      vertex 163 0 -3
    endloop
  endfacet
  facet normal 0 -1 0
    outer loop
      vertex 125 -3 -3
      vertex 176.5 -3 -3
      vertex 172.47285698465717 -3 -0.5717218133863753
    endloop
  endfacet
  facet normal 0 -1 0
    outer loop
      vertex 125 -3 -3
      vertex 172.47285698465717 -3 -0.5717218133863753
      vertex 170.6750841710502 -3 -0.1613919002445634
    endloop
  endfacet
  facet normal 0 0 -1
    outer loop
      vertex 176.5 -3 -3
      vertex 163 0 -3
      vertex 166 0 -3
    endloop
  endfacet
  facet normal 0 0 -1
    outer loop
      vertex 176.5 -3 -3
      vertex 166 0 -3
      vertex 176.5 0 -3
    endloop
  endfacet
  facet normal 0 1 0
    outer loop
      vertex 176.5 0 -3
      vertex 166 0 -3
      vertex 172.47285698465717 0 -0.5717218133863753
    endloop
  endfacet
  facet normal 0 1 0
    outer loop
      vertex 172.47285698465717 0 -0.5717218133863753
      vertex 166 0 -3
      vertex 170.6750841710502 0 -0.1613919002445634
    endloop
  endfacet
  facet normal 0 -1 0
    outer loop
      vertex 172.47285698465717 -3 -0.5717218133863753
      vertex 176.5 -3 -3
      vertex 173.91455884429263 -3 0.5779970543751887
    endloop
  endfacet
  facet normal 0 1 0
    outer loop
      vertex 176.5 0 -3
      vertex 172.47285698465717 0 -0.5717218133863753
      vertex 173.91455884429263 0 0.5779970543751887
    endloop
  endfacet
  facet normal 0 -1 0
    outer loop
      vertex 125 -3 -3
      vertex 170.6750841710502 -3 -0.1613919002445634
      vertex 169.875 -3 1.5
    endloop
  endfacet
  facet normal 0 -1 0
    outer loop
      vertex 125 -3 -3
      vertex 169.875 -3 1.5
      vertex 170.6750841710502 -3 3.1613919002445634
    endloop
  endfacet
  facet normal 0 1 0
    outer loop
      vertex 170.6750841710502 0 -0.1613919002445634
      vertex 166 0 -3
      vertex 169.875 0 1.5
    endloop
  endfacet
  facet normal 0 0 1
    outer loop
      vertex 166 0 16
      vertex 125 -3 16
      vertex 176.5 0 16
    endloop
  endfacet
  facet normal 0 1 0
    outer loop
      vertex 176.5 0 16
      vertex 173.91455884429263 0 12.422002945624811
      vertex 172.47285698465717 0 13.571721813386375
    endloop
  endfacet
  facet normal 0 1 0
    outer loop
      vertex 176.5 0 16
      vertex 173.91455884429263 0 10.577997054375189
      vertex 173.91455884429263 0 12.422002945624811
    endloop
  endfacet
  facet normal 0 -1 0
    outer loop
      vertex 173.91455884429263 -3 12.422002945624811
      vertex 173.91455884429263 -3 10.577997054375189
      vertex 176.5 -3 16
    endloop
  endfacet
  facet normal 0 -1 0
    outer loop
      vertex 173.91455884429263 -3 0.5779970543751887
      vertex 176.5 -3 -3
      vertex 173.91455884429263 -3 2.4220029456248113
    endloop
  endfacet
  facet normal 0 1 0
    outer loop
      vertex 169.875 0 11.5
      vertex 173.91455884429263 0 2.4220029456248113
      vertex 166 0 16
    endloop
  endfacet
  facet normal 0 1 0
    outer loop
      vertex 176.5 0 -3
      vertex 173.91455884429263 0 0.5779970543751887
      vertex 173.91455884429263 0 2.4220029456248113
    endloop
  endfacet
  facet normal 0 0 1
    outer loop
      vertex 176.5 0 16
      vertex 125 -3 16
      vertex 176.5 -3 16
    endloop
  endfacet
  facet normal 0 -1 0
    outer loop
      vertex 173.91455884429263 -3 10.577997054375189
      vertex 176.5 -3 -3
      vertex 176.5 -3 16
    endloop
  endfacet
  facet normal 0 1 0
    outer loop
      vertex 163 0 -3
      vertex 125 0 -3
      vertex 125 0 16
    endloop
  endfacet
  facet normal 0 -1 0
    outer loop
      vertex 125 -3 -3
      vertex 170.6750841710502 -3 3.1613919002445634
      vertex 170.6750841710502 -3 9.838608099755437
    endloop
  endfacet
  facet normal 0 1 0
    outer loop
      vertex 170.6750841710502 0 9.838608099755437
      vertex 173.91455884429263 0 2.4220029456248113
      vertex 169.875 0 11.5
    endloop
  endfacet
  facet normal 0 -1 0
    outer loop
      vertex 172.47285698465717 -3 13.571721813386375
      vertex 173.91455884429263 -3 12.422002945624811
      vertex 176.5 -3 16
    endloop
  endfacet
  facet normal 0 -1 0
    outer loop
      vertex 172.47285698465717 -3 9.428278186613625
      vertex 172.47285698465717 -3 3.5717218133863753
      vertex 173.91455884429263 -3 10.577997054375189
    endloop
  endfacet
  facet normal 0 1 0
    outer loop
      vertex 176.5 0 16
      vertex 172.47285698465717 0 13.571721813386375
      vertex 166 0 16
    endloop
  endfacet
  facet normal 0 1 0
    outer loop
      vertex 170.6750841710502 0 13.161391900244563
      vertex 169.875 0 11.5
      vertex 166 0 16
    endloop
  endfacet
  facet normal 0 1 0
    outer loop
      vertex 173.91455884429263 0 2.4220029456248113
      vertex 172.47285698465717 0 9.428278186613625
      vertex 173.91455884429263 0 10.577997054375189
    endloop
  endfacet
  facet normal 0 1 0
    outer loop
      vertex 173.91455884429263 0 2.4220029456248113
      vertex 170.6750841710502 0 9.838608099755437
      vertex 172.47285698465717 0 9.428278186613625
    endloop
  endfacet
  facet normal 0 1 0
    outer loop
      vertex 172.47285698465717 0 3.5717218133863753
      vertex 166 0 16
      vertex 173.91455884429263 0 2.4220029456248113
    endloop
  endfacet
  facet normal 0 -1 0
    outer loop
      vertex 173.91455884429263 -3 2.4220029456248113
      vertex 176.5 -3 -3
      vertex 173.91455884429263 -3 10.577997054375189
    endloop
  endfacet
  facet normal 1 0 0
    outer loop
      vertex 176.5 0 -3
      vertex 176.5 0 16
      vertex 176.5 -3 -3
    endloop
  endfacet
  facet normal 0 -1 0
    outer loop
      vertex 125 -3 -3
      vertex 170.6750841710502 -3 9.838608099755437
      vertex 169.875 -3 11.5
    endloop
  endfacet
  facet normal 0 1 0
    outer loop
      vertex 169.875 0 1.5
      vertex 166 0 -3
      vertex 166 0 16
    endloop
  endfacet
  facet normal 0 1 0
    outer loop
      vertex 176.5 0 16
      vertex 176.5 0 -3
      vertex 173.91455884429263 0 2.4220029456248113
    endloop
  endfacet
  facet normal 0 -1 0
    outer loop
      vertex 170.6750841710502 -3 3.1613919002445634
      vertex 172.47285698465717 -3 3.5717218133863753
      vertex 172.47285698465717 -3 9.428278186613625
    endloop
  endfacet
  facet normal 0 -1 0
    outer loop
      vertex 172.47285698465717 -3 3.5717218133863753
      vertex 173.91455884429263 -3 2.4220029456248113
      vertex 173.91455884429263 -3 10.577997054375189
    endloop
  endfacet
  facet normal 0 0 1
    outer loop
      vertex 163 0 16
      vertex 125 -3 16
      vertex 166 0 16
    endloop
  endfacet
  facet normal 0 0 1
    outer loop
      vertex 125 0 16
      vertex 125 -3 16
      vertex 163 0 16
    endloop
  endfacet
  facet normal 0 -1 0
    outer loop
      vertex 170.6750841710502 -3 9.838608099755437
      vertex 170.6750841710502 -3 3.1613919002445634
      vertex 172.47285698465717 -3 9.428278186613625
    endloop
  endfacet
  facet normal 0 1 0
    outer loop
      vertex 172.47285698465717 0 13.571721813386375
      vertex 170.6750841710502 0 13.161391900244563
      vertex 166 0 16
    endloop
  endfacet
  facet normal 0 1 0
    outer loop
      vertex 172.47285698465717 0 3.5717218133863753
      vertex 170.6750841710502 0 3.1613919002445634
      vertex 166 0 16
    endloop
  endfacet
  facet normal 0 1 0
    outer loop
      vertex 170.6750841710502 0 3.1613919002445634
      vertex 169.875 0 1.5
      vertex 166 0 16
    endloop
  endfacet
  facet normal 0 -1 0
    outer loop
      vertex 176.5 -3 16
      vertex 125 -3 -3
      vertex 170.6750841710502 -3 13.161391900244563
    endloop
  endfacet
  facet normal 0 -1 0
    outer loop
      vertex 125 -3 -3
      vertex 169.875 -3 11.5
      vertex 170.6750841710502 -3 13.161391900244563
    endloop
  endfacet
  facet normal 0 1 0
    outer loop
      vertex 163 0 16
      vertex 163 0 -3
      vertex 125 0 16
    endloop
  endfacet
  facet normal 0 1 0
    outer loop
      vertex 176.5 0 16
      vertex 173.91455884429263 0 2.4220029456248113
      vertex 173.91455884429263 0 10.577997054375189
    endloop
  endfacet
  facet normal 1.3858872203735974e-16 0.1023993004330417 0.9947433755852932
    outer loop
      vertex 122 136.001 2
      vertex 122 0 16
      vertex 125 0 16
    endloop
  endfacet
  facet normal -1 0 0
    outer loop
      vertex 122 0 16
      vertex 122 136.001 2
      vertex 122 -3 16
    endloop
  endfacet
  facet normal 0 0 1
    outer loop
      vertex 125 0 16
      vertex 122 -3 16
      vertex 125 -3 16
    endloop
  endfacet
  facet normal 0 0 1
    outer loop
      vertex 122 -3 16
      vertex 125 0 16
      vertex 122 0 16
    endloop
  endfacet
  facet normal 0 -1 0
    outer loop
      vertex 122 -3 16
      vertex 125 -3 -3
      vertex 125 -3 16
    endloop
  endfacet
  facet normal -1 0 0
    outer loop
      vertex 122 0 2
      vertex 122 -3 2
      vertex 122 -3 16
    endloop
  endfacet
  facet normal 0 0 -1
    outer loop
      vertex 122 -3 -3
      vertex 125 0 -3
      vertex 125 -3 -3
    endloop
  endfacet
  facet normal 0 -1 0
    outer loop
      vertex 125 -3 -3
      vertex 122 -3 0
      vertex 122 -3 -3
    endloop
  endfacet
  facet normal 0 0 -1
    outer loop
      vertex 125 126.04878048780489 -3
      vertex 122 -3 -3
      vertex 122 136 -3
    endloop
  endfacet
  facet normal 0 -1 0
    outer loop
      vertex 122 -3 2
      vertex 122 -3 0
      vertex 125 -3 -3
    endloop
  endfacet
  facet normal 0 -1 0
    outer loop
      vertex 122 -3 2
      vertex 125 -3 -3
      vertex 122 -3 16
    endloop
  endfacet
  facet normal 0 0 -1
    outer loop
      vertex 125 0 -3
      vertex 122 -3 -3
      vertex 125 126.04878048780489 -3
    endloop
  endfacet
  facet normal 1.454269243629194e-16 0.1023993004330417 0.9947433755852931
    outer loop
      vertex 122 136.001 2
      vertex 125 0 16
      vertex 125 126.04970731707317 3.024390243902439
    endloop
  endfacet
  facet normal -1 0 0
    outer loop
      vertex 122 136 2
      vertex 122 -3 16
      vertex 122 136.001 2
    endloop
  endfacet
  facet normal 1 0 0
    outer loop
      vertex 125 0 16
      vertex 125 126.04878048780489 3.024390243902439
      vertex 125 126.04970731707317 3.024390243902439
    endloop
  endfacet
  facet normal -1 0 0
    outer loop
      vertex 122 136 0
      vertex 122 -3 16
      vertex 122 136 2
    endloop
  endfacet
  facet normal 1 0 0
    outer loop
      vertex 125 126.04878048780489 -3
      vertex 125 126.04878048780489 3.024390243902439
      vertex 125 0 16
    endloop
  endfacet
  facet normal -1 0 0
    outer loop
      vertex 122 0 2
      vertex 122 136 0
      vertex 122 0 0
    endloop
  endfacet
  facet normal -1 0 0
    outer loop
      vertex 122 0 2
      vertex 122 -3 16
      vertex 122 136 0
    endloop
  endfacet
  facet normal 1 0 0
    outer loop
      vertex 125 0 -3
      vertex 125 126.04878048780489 -3
      vertex 125 0 16
    endloop
  endfacet
  facet normal 0 0.10240004547398948 0.9947432988901834
    outer loop
      vertex 122 136.001 2
      vertex 166 0.0009999999999998899 16
      vertex 125 136.001 2
    endloop
  endfacet
  facet normal 0 0 1
    outer loop
      vertex 166 0 16
      vertex 166 0.0009999999999998899 16
      vertex 163 0 16
    endloop
  endfacet
  facet normal 0.957437892107057 0.28863936453227457 0
    outer loop
      vertex 166 0.0009999999999998899 16
      vertex 166 0.0009999999999998899 -3
      vertex 125 136.001 -3
    endloop
  endfacet
  facet normal -0.9574378921070571 -0.28863936453227457 0
    outer loop
      vertex 163 0 -3
      vertex 163 0 16
      vertex 125 126.04878048780489 3.024390243902439
    endloop
  endfacet
  facet normal 0 0 -1
    outer loop
      vertex 166 0 -3
      vertex 125 136.001 -3
      vertex 166 0.0009999999999998899 -3
    endloop
  endfacet
  facet normal 0 0 -1
    outer loop
      vertex 166 0 -3
      vertex 163 0 -3
      vertex 125 136.001 -3
    endloop
  endfacet
  facet normal 1 0 0
    outer loop
      vertex 166 0.0009999999999998899 -3
      vertex 166 0.0009999999999998899 16
      vertex 166 0 -3
    endloop
  endfacet
  facet normal 0.9574378921070571 0.28863936453227457 0
    outer loop
      vertex 125 136.001 0
      vertex 125 136.001 2
      vertex 166 0.0009999999999998899 16
    endloop
  endfacet
  facet normal 0.9574378921070571 0.28863936453227457 0
    outer loop
      vertex 166 0.0009999999999998899 16
      vertex 125 136.001 -3
      vertex 125 136.001 0
    endloop
  endfacet
  facet normal -0.3231438532915105 0 0.946349856067995
    outer loop
      vertex 125 126.04878048780489 3.024390243902439
      vertex 163 0 16
      vertex 125 126.04970731707317 3.024390243902439
    endloop
  endfacet
  facet normal -0.3231438532930891 0 0.9463498560674558
    outer loop
      vertex 125 126.04970731707317 3.024390243902439
      vertex 163 0.0009999999999998899 16
      vertex 122 136.001 2
    endloop
  endfacet
  facet normal 0 0 -1
    outer loop
      vertex 125 136.001 -3
      vertex 163 0 -3
      vertex 125 126.04878048780489 -3
    endloop
  endfacet
  facet normal -0.9574378921070571 -0.2886393645322745 0
    outer loop
      vertex 125 126.04878048780489 3.024390243902439
      vertex 125 126.04878048780489 -3
      vertex 163 0 -3
    endloop
  endfacet
  facet normal 0 0 -1
    outer loop
      vertex 125 136.001 -3
      vertex 122 136 -3
      vertex 122 136.001 -3
    endloop
  endfacet
  facet normal 0 0 -1
    outer loop
      vertex 122 136 -3
      vertex 125 136.001 -3
      vertex 125 126.04878048780489 -3
    endloop
  endfacet
  facet normal 1 0 0
    outer loop
      vertex 166 0 16
      vertex 166 0 -3
      vertex 166 0.0009999999999998899 16
    endloop
  endfacet
  facet normal 0 0.10240004547398948 0.9947432988901834
    outer loop
      vertex 163 0.0009999999999998899 16
      vertex 166 0.0009999999999998899 16
      vertex 122 136.001 2
    endloop
  endfacet
  facet normal -0.3231438532915105 0 0.946349856067995
    outer loop
      vertex 163 0 16
      vertex 163 0.0009999999999998899 16
      vertex 125 126.04970731707317 3.024390243902439
    endloop
  endfacet
  facet normal 0 0 1
    outer loop
      vertex 163 0.0009999999999998899 16
      vertex 163 0 16
      vertex 166 0.0009999999999998899 16
    endloop
  endfacet
  facet normal 0 0 -1
    outer loop
      vertex 0 136 -3
      vertex -3 136.001 -3
      vertex -3 139 -3
    endloop
  endfacet
  facet normal 0 -1 0
    outer loop
      vertex 122 -3 0
      vertex 0 -3 0
      vertex 122 -3 -3
    endloop
  endfacet
  facet normal -1 0 0
    outer loop
      vertex -3 139 0
      vertex -3 136.001 -3
      vertex -3 136.001 0
    endloop
  endfacet
  facet normal -1 0 0
    outer loop
      vertex -3 139 0
      vertex -3 139 -3
      vertex -3 136.001 -3
    endloop
  endfacet
  facet normal 0 0 -1
    outer loop
      vertex 122 136 -3
      vertex 0 -3 -3
      vertex 0 136 -3
    endloop
  endfacet
  facet normal 0 0 -1
    outer loop
      vertex -3 139 -3
      vertex 122 136.001 -3
      vertex 0 136 -3
    endloop
  endfacet
  facet normal 0 0 1
    outer loop
      vertex 122 136 0
      vertex 0 136 0
      vertex 122 0 0
    endloop
  endfacet
  facet normal 0 1 0
    outer loop
      vertex -3 139 0
      vertex 125 139 -3
      vertex -3 139 -3
    endloop
  endfacet
  facet normal 0 0 1
    outer loop
      vertex 0 136 0
      vertex 0 0 0
      vertex 122 0 0
    endloop
  endfacet
  facet normal 0 0 -1
    outer loop
      vertex 122 136.001 -3
      vertex 122 136 -3
      vertex 0 136 -3
    endloop
  endfacet
  facet normal 0 0 -1
    outer loop
      vertex -3 139 -3
      vertex 125 136.001 -3
      vertex 122 136.001 -3
    endloop
  endfacet
  facet normal 0 0 -1
    outer loop
      vertex -3 139 -3
      vertex 125 139 -3
      vertex 125 136.001 -3
    endloop
  endfacet
  facet normal 0 1 0
    outer loop
      vertex 125 139 -3
      vertex -3 139 0
      vertex 125 139 0
    endloop
  endfacet
  facet normal 0 -1 0
    outer loop
      vertex 0 -3 -3
      vertex 122 -3 -3
      vertex 0 -3 0
    endloop
  endfacet
  facet normal 1 0 0
    outer loop
      vertex 125 136.001 -3
      vertex 125 139 -3
      vertex 125 136.001 0
    endloop
  endfacet
  facet normal 1 0 0
    outer loop
      vertex 125 136.001 0
      vertex 125 139 -3
      vertex 125 139 0
    endloop
  endfacet
  facet normal 0 0 -1
    outer loop
      vertex 122 -3 -3
      vertex 0 -3 -3
      vertex 122 136 -3
    endloop
  endfacet
  facet normal 0 0 1
    outer loop
      vertex 122 0 2
      vertex 0 0 2
      vertex 122 -3 2
    endloop
  endfacet
  facet normal 0 -1 0
    outer loop
      vertex 122 -3 2
      vertex 0 -3 2
      vertex 122 -3 0
    endloop
  endfacet
  facet normal 0 0 1
    outer loop
      vertex 0 -3 2
      vertex 122 -3 2
      vertex 0 0 2
    endloop
  endfacet
  facet normal 0 -1 0
    outer loop
      vertex 0 -3 2
      vertex 0 -3 0
      vertex 122 -3 0
    endloop
  endfacet
  facet normal 0 1 0
    outer loop
      vertex 122 0 2
      vertex 0 0 0
      vertex 0 0 2
    endloop
  endfacet
  facet normal 0 1 0
    outer loop
      vertex 0 0 0
      vertex 122 0 2
      vertex 122 0 0
    endloop
  endfacet
  facet normal 0 -1 0
    outer loop
      vertex 0 136 2
      vertex 0 136 0
      vertex 122 136 0
    endloop
  endfacet
  facet normal 0 0 1
    outer loop
      vertex 122 136.001 2
      vertex 0 136.001 2
      vertex 122 136 2
    endloop
  endfacet
  facet normal 0 0 1
    outer loop
      vertex 125 139 2
      vertex -3 139 2
      vertex 122 136.001 2
    endloop
  endfacet
  facet normal 0 0 1
    outer loop
      vertex 125 139 2
      vertex 122 136.001 2
      vertex 125 136.001 2
    endloop
  endfacet
  facet normal 0 0 1
    outer loop
      vertex 0 136.001 2
      vertex 122 136.001 2
      vertex -3 139 2
    endloop
  endfacet
  facet normal 0 0 1
    outer loop
      vertex 0 136.001 2
      vertex 0 136 2
      vertex 122 136 2
    endloop
  endfacet
  facet normal 1 0 0
    outer loop
      vertex 125 136.001 2
      vertex 125 139 0
      vertex 125 139 2
    endloop
  endfacet
  facet normal 1 0 0
    outer loop
      vertex 125 139 0
      vertex 125 136.001 2
      vertex 125 136.001 0
    endloop
  endfacet
  facet normal 0 1 0
    outer loop
      vertex -3 139 0
      vertex -3 139 2
      vertex 125 139 0
    endloop
  endfacet
  facet normal 0 1 0
    outer loop
      vertex 125 139 0
      vertex -3 139 2
      vertex 125 139 2
    endloop
  endfacet
  facet normal 0 -1 0
    outer loop
      vertex 0 136 2
      vertex 122 136 0
      vertex 122 136 2
    endloop
  endfacet
  facet normal 0 0 1
    outer loop
      vertex -3 139 2
      vertex -3 136.001 2
      vertex 0 136.001 2
    endloop
  endfacet
  facet normal -1 0 0
    outer loop
      vertex -3 139 0
      vertex -3 136.001 0
      vertex -3 139 2
    endloop
  endfacet
  facet normal -1 0 0
    outer loop
      vertex -3 139 2
      vertex -3 136.001 0
      vertex -3 136.001 2
    endloop
  endfacet
endsolid OpenSCAD_Model
