solid OpenSCAD_Model
  facet normal 0.2225209339563154 0 -0.9749279121818233
    outer loop
      vertex 182.47285698465717 0 5.571721813386375
      vertex 182.47285698465717 -3 5.571721813386375
      vertex 180.6750841710502 -3 5.161391900244563
    endloop
  endfacet
  facet normal 0.2225209339563154 0 0.9749279121818233
    outer loop
      vertex 182.47285698465717 -3 1.4282781866136247
      vertex 182.47285698465717 0 1.4282781866136247
      vertex 180.6750841710502 0 1.8386080997554366
    endloop
  endfacet
  facet normal 0.2225209339563154 0 0.9749279121818233
    outer loop
      vertex 180.6750841710502 -3 1.8386080997554366
      vertex 182.47285698465717 -3 1.4282781866136247
      vertex 180.6750841710502 0 1.8386080997554366
    endloop
  endfacet
  facet normal -0.6234898018587373 0 0.7818314824680268
    outer loop
      vertex 182.47285698465717 0 1.4282781866136247
      vertex 182.47285698465717 -3 1.4282781866136247
      vertex 183.91455884429263 -3 2.5779970543751887
    endloop
  endfacet
  facet normal 0.9009688679024169 1.9339583217001305e-17 0.4338837391175627
    outer loop
      vertex 179.875 0 3.5
      vertex 180.6750841710502 -3 1.8386080997554366
      vertex 180.6750841710502 0 1.8386080997554366
    endloop
  endfacet
  facet normal -0.6234898018587373 0 0.7818314824680268
    outer loop
      vertex 183.91455884429263 0 2.5779970543751887
      vertex 182.47285698465717 0 1.4282781866136247
      vertex 183.91455884429263 -3 2.5779970543751887
    endloop
  endfacet
  facet normal -1 0 0
    outer loop
      vertex 183.91455884429263 0 2.5779970543751887
      vertex 183.91455884429263 -3 2.5779970543751887
      vertex 183.91455884429263 -3 4.422002945624811
    endloop
  endfacet
  facet normal 0.9009688679024169 0 -0.4338837391175627
    outer loop
      vertex 179.875 0 3.5
      vertex 180.6750841710502 0 5.161391900244563
      vertex 179.875 -3 3.5
    endloop
  endfacet
  facet normal -1 0 0
    outer loop
      vertex 183.91455884429263 0 4.422002945624811
      vertex 183.91455884429263 0 2.5779970543751887
      vertex 183.91455884429263 -3 4.422002945624811
    endloop
  endfacet
  facet normal 0.9009688679024169 -1.9339583217001305e-17 -0.4338837391175627
    outer loop
      vertex 179.875 -3 3.5
      vertex 180.6750841710502 0 5.161391900244563
      vertex 180.6750841710502 -3 5.161391900244563
    endloop
  endfacet
  facet normal 0.2225209339563154 0 -0.9749279121818233
    outer loop
      vertex 180.6750841710502 -3 5.161391900244563
      vertex 180.6750841710502 0 5.161391900244563
      vertex 182.47285698465717 0 5.571721813386375
    endloop
  endfacet
  facet normal -0.6234898018587373 0 -0.7818314824680268
    outer loop
      vertex 182.47285698465717 -3 5.571721813386375
      vertex 182.47285698465717 0 5.571721813386375
      vertex 183.91455884429263 0 4.422002945624811
    endloop
  endfacet
  facet normal -0.6234898018587373 0 -0.7818314824680268
    outer loop
      vertex 183.91455884429263 0 4.422002945624811
      vertex 183.91455884429263 -3 4.422002945624811
      vertex 182.47285698465717 -3 5.571721813386375
    endloop
  endfacet
  facet normal 0.9009688679024169 0 0.4338837391175627
    outer loop
      vertex 179.875 -3 3.5
      vertex 180.6750841710502 -3 1.8386080997554366
      vertex 179.875 0 3.5
    endloop
  endfacet
  facet normal -0.22252093395631437 0 -0.9749279121818236
    outer loop
      vertex -8.472856984657168 0 5.571721813386375
      vertex -6.675084171050191 -3 5.161391900244563
      vertex -8.472856984657168 -3 5.571721813386375
    endloop
  endfacet
  facet normal -0.22252093395631467 7.166456116444542e-18 0.9749279121818236
    outer loop
      vertex -6.675084171050192 0 1.8386080997554366
      vertex -8.472856984657167 0 1.4282781866136247
      vertex -8.472856984657167 -3 1.4282781866136247
    endloop
  endfacet
  facet normal 0.6234898018587332 0 0.7818314824680302
    outer loop
      vertex -9.91455884429264 -3 2.5779970543751887
      vertex -8.472856984657167 0 1.4282781866136247
      vertex -9.91455884429264 0 2.5779970543751887
    endloop
  endfacet
  facet normal 1 0 0
    outer loop
      vertex -9.91455884429264 -3 2.5779970543751887
      vertex -9.91455884429264 0 2.5779970543751887
      vertex -9.91455884429264 -3 4.422002945624811
    endloop
  endfacet
  facet normal -0.900968867902419 0 0.43388373911755834
    outer loop
      vertex -6.675084171050192 0 1.8386080997554366
      vertex -6.675084171050192 -3 1.8386080997554366
      vertex -5.875 0 3.5
    endloop
  endfacet
  facet normal 0.6234898018587332 -4.996462927419878e-18 0.7818314824680302
    outer loop
      vertex -9.91455884429264 -3 2.5779970543751887
      vertex -8.472856984657167 -3 1.4282781866136247
      vertex -8.472856984657167 0 1.4282781866136247
    endloop
  endfacet
  facet normal -0.22252093395631467 0 0.9749279121818236
    outer loop
      vertex -6.675084171050192 0 1.8386080997554366
      vertex -8.472856984657167 -3 1.4282781866136247
      vertex -6.675084171050192 -3 1.8386080997554366
    endloop
  endfacet
  facet normal -0.900968867902419 0 0.43388373911755834
    outer loop
      vertex -5.875 0 3.5
      vertex -6.675084171050192 -3 1.8386080997554366
      vertex -5.875 -3 3.5
    endloop
  endfacet
  facet normal 1 0 0
    outer loop
      vertex -9.91455884429264 -3 4.422002945624811
      vertex -9.91455884429264 0 2.5779970543751887
      vertex -9.91455884429264 0 4.422002945624811
    endloop
  endfacet
  facet normal 0.6234898018587335 0 -0.7818314824680298
    outer loop
      vertex -9.91455884429264 0 4.422002945624811
      vertex -8.472856984657168 -3 5.571721813386375
      vertex -9.91455884429264 -3 4.422002945624811
    endloop
  endfacet
  facet normal -0.9009688679024191 0 -0.43388373911755795
    outer loop
      vertex -6.675084171050191 -3 5.161391900244563
      vertex -6.675084171050191 0 5.161391900244563
      vertex -5.875 -3 3.5
    endloop
  endfacet
  facet normal 0.6234898018587335 0 -0.7818314824680298
    outer loop
      vertex -8.472856984657168 -3 5.571721813386375
      vertex -9.91455884429264 0 4.422002945624811
      vertex -8.472856984657168 0 5.571721813386375
    endloop
  endfacet
  facet normal -0.22252093395631437 0 -0.9749279121818236
    outer loop
      vertex -6.675084171050191 0 5.161391900244563
      vertex -6.675084171050191 -3 5.161391900244563
      vertex -8.472856984657168 0 5.571721813386375
    endloop
  endfacet
  facet normal -0.9009688679024191 0 -0.43388373911755795
    outer loop
      vertex -5.875 0 3.5
      vertex -5.875 -3 3.5
      vertex -6.675084171050191 0 5.161391900244563
    endloop
  endfacet
  facet normal 0.9009688679024169 0 -0.4338837391175627
    outer loop
      vertex 179.875 0 28.5
      vertex 180.6750841710502 0 30.161391900244563
      vertex 179.875 -3 28.5
    endloop
  endfacet
  facet normal 0.9009688679024169 0 0.4338837391175627
    outer loop
      vertex 179.875 -3 28.5
      vertex 180.6750841710502 -3 26.838608099755437
      vertex 179.875 0 28.5
    endloop
  endfacet
  facet normal 0.2225209339563154 0 0.9749279121818233
    outer loop
      vertex 180.6750841710502 -3 26.838608099755437
      vertex 182.47285698465717 -3 26.428278186613625
      vertex 180.6750841710502 0 26.838608099755437
    endloop
  endfacet
  facet normal -0.6234898018587373 0 0.7818314824680268
    outer loop
      vertex 182.47285698465717 0 26.428278186613625
      vertex 182.47285698465717 -3 26.428278186613625
      vertex 183.91455884429263 -3 27.57799705437519
    endloop
  endfacet
  facet normal 0.9009688679024169 0 0.4338837391175627
    outer loop
      vertex 180.6750841710502 0 26.838608099755437
      vertex 179.875 0 28.5
      vertex 180.6750841710502 -3 26.838608099755437
    endloop
  endfacet
  facet normal -0.6234898018587373 0 0.7818314824680268
    outer loop
      vertex 183.91455884429263 0 27.57799705437519
      vertex 182.47285698465717 0 26.428278186613625
      vertex 183.91455884429263 -3 27.57799705437519
    endloop
  endfacet
  facet normal -1 0 0
    outer loop
      vertex 183.91455884429263 0 27.57799705437519
      vertex 183.91455884429263 -3 27.57799705437519
      vertex 183.91455884429263 -3 29.42200294562481
    endloop
  endfacet
  facet normal 0.2225209339563154 0 0.9749279121818233
    outer loop
      vertex 182.47285698465717 -3 26.428278186613625
      vertex 182.47285698465717 0 26.428278186613625
      vertex 180.6750841710502 0 26.838608099755437
    endloop
  endfacet
  facet normal 0.9009688679024169 0 -0.4338837391175627
    outer loop
      vertex 180.6750841710502 -3 30.161391900244563
      vertex 179.875 -3 28.5
      vertex 180.6750841710502 0 30.161391900244563
    endloop
  endfacet
  facet normal -1 0 0
    outer loop
      vertex 183.91455884429263 0 29.42200294562481
      vertex 183.91455884429263 0 27.57799705437519
      vertex 183.91455884429263 -3 29.42200294562481
    endloop
  endfacet
  facet normal -0.6234898018587373 0 -0.7818314824680268
    outer loop
      vertex 183.91455884429263 0 29.42200294562481
      vertex 183.91455884429263 -3 29.42200294562481
      vertex 182.47285698465717 -3 30.571721813386375
    endloop
  endfacet
  facet normal 0.2225209339563154 0 -0.9749279121818233
    outer loop
      vertex 180.6750841710502 -3 30.161391900244563
      vertex 180.6750841710502 0 30.161391900244563
      vertex 182.47285698465717 0 30.571721813386375
    endloop
  endfacet
  facet normal -0.6234898018587373 -1.3836536195400314e-17 -0.7818314824680268
    outer loop
      vertex 183.91455884429263 0 29.42200294562481
      vertex 182.47285698465717 -3 30.571721813386375
      vertex 182.47285698465717 0 30.571721813386375
    endloop
  endfacet
  facet normal 0.2225209339563154 0 -0.9749279121818233
    outer loop
      vertex 182.47285698465717 -3 30.571721813386375
      vertex 180.6750841710502 -3 30.161391900244563
      vertex 182.47285698465717 0 30.571721813386375
    endloop
  endfacet
  facet normal 0.6234898018587335 0 -0.7818314824680298
    outer loop
      vertex -9.91455884429264 0 29.42200294562481
      vertex -8.472856984657168 -3 30.571721813386375
      vertex -9.91455884429264 -3 29.42200294562481
    endloop
  endfacet
  facet normal 1 0 0
    outer loop
      vertex -9.91455884429264 -3 29.42200294562481
      vertex -9.91455884429264 0 27.57799705437519
      vertex -9.91455884429264 0 29.42200294562481
    endloop
  endfacet
  facet normal -0.900968867902419 0 0.43388373911755834
    outer loop
      vertex -5.875 0 28.5
      vertex -6.675084171050192 -3 26.838608099755437
      vertex -5.875 -3 28.5
    endloop
  endfacet
  facet normal 1 0 0
    outer loop
      vertex -9.91455884429264 -3 27.57799705437519
      vertex -9.91455884429264 0 27.57799705437519
      vertex -9.91455884429264 -3 29.42200294562481
    endloop
  endfacet
  facet normal -0.900968867902419 1.6734778641866345e-17 0.43388373911755834
    outer loop
      vertex -5.875 0 28.5
      vertex -6.675084171050192 0 26.838608099755437
      vertex -6.675084171050192 -3 26.838608099755437
    endloop
  endfacet
  facet normal -0.9009688679024191 0 -0.43388373911755795
    outer loop
      vertex -6.675084171050191 -3 30.161391900244563
      vertex -6.675084171050191 0 30.161391900244563
      vertex -5.875 -3 28.5
    endloop
  endfacet
  facet normal 0.6234898018587335 0 -0.7818314824680298
    outer loop
      vertex -8.472856984657168 -3 30.571721813386375
      vertex -9.91455884429264 0 29.42200294562481
      vertex -8.472856984657168 0 30.571721813386375
    endloop
  endfacet
  facet normal -0.22252093395631437 0 -0.9749279121818236
    outer loop
      vertex -6.675084171050191 0 30.161391900244563
      vertex -6.675084171050191 -3 30.161391900244563
      vertex -8.472856984657168 0 30.571721813386375
    endloop
  endfacet
  facet normal -0.22252093395631437 0 -0.9749279121818236
    outer loop
      vertex -8.472856984657168 0 30.571721813386375
      vertex -6.675084171050191 -3 30.161391900244563
      vertex -8.472856984657168 -3 30.571721813386375
    endloop
  endfacet
  facet normal -0.9009688679024191 0 -0.43388373911755795
    outer loop
      vertex -5.875 0 28.5
      vertex -5.875 -3 28.5
      vertex -6.675084171050191 0 30.161391900244563
    endloop
  endfacet
  facet normal -0.22252093395631467 0 0.9749279121818236
    outer loop
      vertex -6.675084171050192 0 26.838608099755437
      vertex -8.472856984657167 -3 26.428278186613625
      vertex -6.675084171050192 -3 26.838608099755437
    endloop
  endfacet
  facet normal 0.6234898018587332 -4.996462927419878e-18 0.7818314824680302
    outer loop
      vertex -9.91455884429264 -3 27.57799705437519
      vertex -8.472856984657167 -3 26.428278186613625
      vertex -8.472856984657167 0 26.428278186613625
    endloop
  endfacet
  facet normal 0.6234898018587332 -4.996462927419878e-18 0.7818314824680302
    outer loop
      vertex -8.472856984657167 0 26.428278186613625
      vertex -9.91455884429264 0 27.57799705437519
      vertex -9.91455884429264 -3 27.57799705437519
    endloop
  endfacet
  facet normal -0.22252093395631467 7.166456116444542e-18 0.9749279121818236
    outer loop
      vertex -6.675084171050192 0 26.838608099755437
      vertex -8.472856984657167 0 26.428278186613625
      vertex -8.472856984657167 -3 26.428278186613625
    endloop
  endfacet
  facet normal -1 0 0
    outer loop
      vertex -12.5 0 33
      vertex -12.5 -3 -1
      vertex -12.5 -3 33
    endloop
  endfacet
  facet normal 0 1 0
    outer loop
      vertex -3 0 -1
      vertex -5.875 0 3.5
      vertex -3 0 33
    endloop
  endfacet
  facet normal 0 1 0
    outer loop
      vertex -9.91455884429264 0 27.57799705437519
      vertex -12.5 0 -1
      vertex -9.91455884429264 0 29.42200294562481
    endloop
  endfacet
  facet normal 0 -1 0
    outer loop
      vertex -12.5 -3 33
      vertex -3 -3 -1
      vertex -9.91455884429264 -3 27.57799705437519
    endloop
  endfacet
  facet normal 0 1 0
    outer loop
      vertex -3 0 33
      vertex -12.5 0 -1
      vertex -5.875 0 28.5
    endloop
  endfacet
  facet normal 0 -1 0
    outer loop
      vertex -5.875 -3 28.5
      vertex -3 -3 -1
      vertex -3 -3 33
    endloop
  endfacet
  facet normal 0 1 0
    outer loop
      vertex -9.91455884429264 0 29.42200294562481
      vertex -12.5 0 -1
      vertex -12.5 0 33
    endloop
  endfacet
  facet normal 0 -1 0
    outer loop
      vertex -8.472856984657167 -3 26.428278186613625
      vertex -3 -3 -1
      vertex -6.675084171050192 -3 26.838608099755437
    endloop
  endfacet
  facet normal 0 -1 0
    outer loop
      vertex -12.5 -3 -1
      vertex -3 -3 -1
      vertex -8.472856984657167 -3 1.4282781866136247
    endloop
  endfacet
  facet normal 0 1 0
    outer loop
      vertex -3 0 -1
      vertex -12.5 0 -1
      vertex -8.472856984657167 0 1.4282781866136247
    endloop
  endfacet
  facet normal 0 1 0
    outer loop
      vertex -12.5 0 -1
      vertex -6.675084171050192 0 26.838608099755437
      vertex -5.875 0 28.5
    endloop
  endfacet
  facet normal 0 1 0
    outer loop
      vertex -12.5 0 -1
      vertex -8.472856984657167 0 26.428278186613625
      vertex -6.675084171050192 0 26.838608099755437
    endloop
  endfacet
  facet normal 0 -1 0
    outer loop
      vertex -3 -3 -1
      vertex -8.472856984657167 -3 26.428278186613625
      vertex -9.91455884429264 -3 27.57799705437519
    endloop
  endfacet
  facet normal 0 1 0
    outer loop
      vertex -12.5 0 -1
      vertex -9.91455884429264 0 27.57799705437519
      vertex -8.472856984657167 0 26.428278186613625
    endloop
  endfacet
  facet normal 0 -1 0
    outer loop
      vertex -12.5 -3 -1
      vertex -8.472856984657167 -3 1.4282781866136247
      vertex -9.91455884429264 -3 2.5779970543751887
    endloop
  endfacet
  facet normal 0 1 0
    outer loop
      vertex -8.472856984657167 0 1.4282781866136247
      vertex -12.5 0 -1
      vertex -9.91455884429264 0 2.5779970543751887
    endloop
  endfacet
  facet normal 0 0 -1
    outer loop
      vertex -3 -3 -1
      vertex -12.5 -3 -1
      vertex -3 0 -1
    endloop
  endfacet
  facet normal 0 -1 0
    outer loop
      vertex -8.472856984657167 -3 1.4282781866136247
      vertex -3 -3 -1
      vertex -6.675084171050192 -3 1.8386080997554366
    endloop
  endfacet
  facet normal 0 1 0
    outer loop
      vertex -3 0 -1
      vertex -8.472856984657167 0 1.4282781866136247
      vertex -6.675084171050192 0 1.8386080997554366
    endloop
  endfacet
  facet normal 0 1 0
    outer loop
      vertex -3 0 33
      vertex -6.675084171050191 0 5.161391900244563
      vertex -8.472856984657168 0 5.571721813386375
    endloop
  endfacet
  facet normal 0 -1 0
    outer loop
      vertex -12.5 -3 33
      vertex -9.91455884429264 -3 27.57799705437519
      vertex -9.91455884429264 -3 29.42200294562481
    endloop
  endfacet
  facet normal 0 1 0
    outer loop
      vertex -5.875 0 3.5
      vertex -6.675084171050191 0 5.161391900244563
      vertex -3 0 33
    endloop
  endfacet
  facet normal 0 1 0
    outer loop
      vertex -8.472856984657168 0 5.571721813386375
      vertex -9.91455884429264 0 4.422002945624811
      vertex -3 0 33
    endloop
  endfacet
  facet normal 0 -1 0
    outer loop
      vertex -8.472856984657168 -3 5.571721813386375
      vertex -6.675084171050191 -3 5.161391900244563
      vertex -12.5 -3 33
    endloop
  endfacet
  facet normal 0 -1 0
    outer loop
      vertex -5.875 -3 3.5
      vertex -12.5 -3 33
      vertex -6.675084171050191 -3 5.161391900244563
    endloop
  endfacet
  facet normal 0 -1 0
    outer loop
      vertex -6.675084171050191 -3 30.161391900244563
      vertex -5.875 -3 28.5
      vertex -3 -3 33
    endloop
  endfacet
  facet normal 0 1 0
    outer loop
      vertex -3 0 33
      vertex -5.875 0 28.5
      vertex -6.675084171050191 0 30.161391900244563
    endloop
  endfacet
  facet normal 0 -1 0
    outer loop
      vertex -12.5 -3 33
      vertex -9.91455884429264 -3 29.42200294562481
      vertex -8.472856984657168 -3 30.571721813386375
    endloop
  endfacet
  facet normal 0 1 0
    outer loop
      vertex -8.472856984657168 0 30.571721813386375
      vertex -9.91455884429264 0 29.42200294562481
      vertex -12.5 0 33
    endloop
  endfacet
  facet normal 0 -1 0
    outer loop
      vertex -12.5 -3 33
      vertex -8.472856984657168 -3 30.571721813386375
      vertex -3 -3 33
    endloop
  endfacet
  facet normal 0 0 1
    outer loop
      vertex -12.5 0 33
      vertex -12.5 -3 33
      vertex -3 -3 33
    endloop
  endfacet
  facet normal 0 1 0
    outer loop
      vertex -8.472856984657168 0 30.571721813386375
      vertex -12.5 0 33
      vertex -3 0 33
    endloop
  endfacet
  facet normal 0 -1 0
    outer loop
      vertex -8.472856984657168 -3 30.571721813386375
      vertex -6.675084171050191 -3 30.161391900244563
      vertex -3 -3 33
    endloop
  endfacet
  facet normal 0 1 0
    outer loop
      vertex -3 0 33
      vertex -6.675084171050191 0 30.161391900244563
      vertex -8.472856984657168 0 30.571721813386375
    endloop
  endfacet
  facet normal 0 0 1
    outer loop
      vertex -3 0 33
      vertex -12.5 0 33
      vertex -3 -3 33
    endloop
  endfacet
  facet normal 0 -1 0
    outer loop
      vertex -6.675084171050192 -3 26.838608099755437
      vertex -3 -3 -1
      vertex -5.875 -3 28.5
    endloop
  endfacet
  facet normal 0 1 0
    outer loop
      vertex -9.91455884429264 0 2.5779970543751887
      vertex -12.5 0 -1
      vertex -9.91455884429264 0 4.422002945624811
    endloop
  endfacet
  facet normal 0 -1 0
    outer loop
      vertex -6.675084171050192 -3 1.8386080997554366
      vertex -3 -3 -1
      vertex -5.875 -3 3.5
    endloop
  endfacet
  facet normal 0 1 0
    outer loop
      vertex -3 0 -1
      vertex -6.675084171050192 0 1.8386080997554366
      vertex -5.875 0 3.5
    endloop
  endfacet
  facet normal -1 0 0
    outer loop
      vertex -12.5 0 -1
      vertex -12.5 -3 -1
      vertex -12.5 0 33
    endloop
  endfacet
  facet normal 0 -1 0
    outer loop
      vertex -12.5 -3 -1
      vertex -9.91455884429264 -3 2.5779970543751887
      vertex -12.5 -3 33
    endloop
  endfacet
  facet normal 0 -1 0
    outer loop
      vertex -5.875 -3 3.5
      vertex -3 -3 -1
      vertex -12.5 -3 33
    endloop
  endfacet
  facet normal 0 -1 0
    outer loop
      vertex -12.5 -3 33
      vertex -9.91455884429264 -3 4.422002945624811
      vertex -8.472856984657168 -3 5.571721813386375
    endloop
  endfacet
  facet normal 0 1 0
    outer loop
      vertex -9.91455884429264 0 4.422002945624811
      vertex -12.5 0 -1
      vertex -3 0 33
    endloop
  endfacet
  facet normal 0 -1 0
    outer loop
      vertex -12.5 -3 33
      vertex -9.91455884429264 -3 2.5779970543751887
      vertex -9.91455884429264 -3 4.422002945624811
    endloop
  endfacet
  facet normal 0 0 -1
    outer loop
      vertex -12.5 -3 -1
      vertex -12.5 0 -1
      vertex -3 0 -1
    endloop
  endfacet
  facet normal 0 0 1
    outer loop
      vertex -3 0 33
      vertex -3 -3 33
      vertex 0 -3 33
    endloop
  endfacet
  facet normal 0 -1 0
    outer loop
      vertex -3 -3 -1
      vertex 0 -3 2
      vertex 0 -3 33
    endloop
  endfacet
  facet normal 0 0 1
    outer loop
      vertex -3 0 33
      vertex 0 -3 33
      vertex 0 0 33
    endloop
  endfacet
  facet normal 0 -1 0
    outer loop
      vertex -3 -3 -1
      vertex 0 -3 0
      vertex 0 -3 2
    endloop
  endfacet
  facet normal 1 0 0
    outer loop
      vertex 0 -3 33
      vertex 0 -3 2
      vertex 0 0 2
    endloop
  endfacet
  facet normal 0 0 -1
    outer loop
      vertex 0 -3 -1
      vertex -3 0 -1
      vertex 0 0 -1
    endloop
  endfacet
  facet normal 0 -1 0
    outer loop
      vertex -3 -3 -1
      vertex 0 -3 -1
      vertex 0 -3 0
    endloop
  endfacet
  facet normal 0 0 -1
    outer loop
      vertex -3 0 -1
      vertex 0 -3 -1
      vertex -3 -3 -1
    endloop
  endfacet
  facet normal 1 0 0
    outer loop
      vertex 0 -3 33
      vertex 0 0 2
      vertex 0 0 33
    endloop
  endfacet
  facet normal 0 -1 0
    outer loop
      vertex -3 -3 33
      vertex -3 -3 -1
      vertex 0 -3 33
    endloop
  endfacet
  facet normal 1 0 0
    outer loop
      vertex 0 130.001 2
      vertex 0 0 33
      vertex 0 130 2
    endloop
  endfacet
  facet normal -1 0 0
    outer loop
      vertex -3 130.001 0
      vertex -3 0.0009999999999998899 33
      vertex -3 130.001 2
    endloop
  endfacet
  facet normal -1 0 0
    outer loop
      vertex -3 130.001 -1
      vertex -3 0.0009999999999998899 33
      vertex -3 130.001 0
    endloop
  endfacet
  facet normal 1 0 0
    outer loop
      vertex 0 130 2
      vertex 0 0 0
      vertex 0 130 0
    endloop
  endfacet
  facet normal 1 0 0
    outer loop
      vertex 0 130.001 2
      vertex 0 0.0009999999999998899 33
      vertex 0 0 33
    endloop
  endfacet
  facet normal 0 0.23195770790016243 0.9727258718393909
    outer loop
      vertex -3 0.0009999999999998899 33
      vertex 0 0.0009999999999998899 33
      vertex 0 130.001 2
    endloop
  endfacet
  facet normal -1 0 0
    outer loop
      vertex -3 130.001 -1
      vertex -3 0 33
      vertex -3 0.0009999999999998899 33
    endloop
  endfacet
  facet normal 0 0 1
    outer loop
      vertex -3 0.0009999999999998899 33
      vertex 0 0 33
      vertex 0 0.0009999999999998899 33
    endloop
  endfacet
  facet normal 0 0 1
    outer loop
      vertex -3 0.0009999999999998899 33
      vertex -3 0 33
      vertex 0 0 33
    endloop
  endfacet
  facet normal 0 0 -1
    outer loop
      vertex 0 0 -1
      vertex -3 0 -1
      vertex -3 130.001 -1
    endloop
  endfacet
  facet normal 1 0 0
    outer loop
      vertex 0 0 0
      vertex 0 130 2
      vertex 0 0 2
    endloop
  endfacet
  facet normal -1 0 0
    outer loop
      vertex -3 130.001 -1
      vertex -3 0 -1
      vertex -3 0 33
    endloop
  endfacet
  facet normal 1 0 0
    outer loop
      vertex 0 0 2
      vertex 0 130 2
      vertex 0 0 33
    endloop
  endfacet
  facet normal 0 0.23195770790016243 0.9727258718393909
    outer loop
      vertex -3 130.001 2
      vertex -3 0.0009999999999998899 33
      vertex 0 130.001 2
    endloop
  endfacet
  facet normal 0 -1 0
    outer loop
      vertex 147 -3 -1
      vertex 186.5 -3 -1
      vertex 182.47285698465717 -3 1.4282781866136247
    endloop
  endfacet
  facet normal 0 1 0
    outer loop
      vertex 180.6750841710502 0 26.838608099755437
      vertex 186.5 0 -1
      vertex 179.875 0 28.5
    endloop
  endfacet
  facet normal 0 1 0
    outer loop
      vertex 186.5 0 33
      vertex 182.47285698465717 0 30.571721813386375
      vertex 176 0 33
    endloop
  endfacet
  facet normal 0 -1 0
    outer loop
      vertex 147 -3 -1
      vertex 182.47285698465717 -3 1.4282781866136247
      vertex 180.6750841710502 -3 1.8386080997554366
    endloop
  endfacet
  facet normal 0 -1 0
    outer loop
      vertex 147 -3 -1
      vertex 180.6750841710502 -3 1.8386080997554366
      vertex 179.875 -3 3.5
    endloop
  endfacet
  facet normal 0 0 -1
    outer loop
      vertex 186.5 -3 -1
      vertex 173 0 -1
      vertex 176 0 -1
    endloop
  endfacet
  facet normal 0 0 -1
    outer loop
      vertex 186.5 -3 -1
      vertex 176 0 -1
      vertex 186.5 0 -1
    endloop
  endfacet
  facet normal 0 1 0
    outer loop
      vertex 186.5 0 -1
      vertex 176 0 -1
      vertex 180.6750841710502 0 1.8386080997554366
    endloop
  endfacet
  facet normal 0 1 0
    outer loop
      vertex 186.5 0 -1
      vertex 180.6750841710502 0 1.8386080997554366
      vertex 182.47285698465717 0 1.4282781866136247
    endloop
  endfacet
  facet normal 0 -1 0
    outer loop
      vertex 182.47285698465717 -3 1.4282781866136247
      vertex 186.5 -3 -1
      vertex 183.91455884429263 -3 2.5779970543751887
    endloop
  endfacet
  facet normal 0 1 0
    outer loop
      vertex 186.5 0 -1
      vertex 182.47285698465717 0 1.4282781866136247
      vertex 183.91455884429263 0 2.5779970543751887
    endloop
  endfacet
  facet normal 0 1 0
    outer loop
      vertex 180.6750841710502 0 1.8386080997554366
      vertex 176 0 -1
      vertex 179.875 0 3.5
    endloop
  endfacet
  facet normal 0 0 -1
    outer loop
      vertex 147 -3 -1
      vertex 147 0 -1
      vertex 186.5 -3 -1
    endloop
  endfacet
  facet normal 0 1 0
    outer loop
      vertex 179.875 0 3.5
      vertex 176 0 -1
      vertex 180.6750841710502 0 5.161391900244563
    endloop
  endfacet
  facet normal 0 1 0
    outer loop
      vertex 186.5 0 33
      vertex 183.91455884429263 0 29.42200294562481
      vertex 182.47285698465717 0 30.571721813386375
    endloop
  endfacet
  facet normal 0 -1 0
    outer loop
      vertex 186.5 -3 33
      vertex 182.47285698465717 -3 30.571721813386375
      vertex 183.91455884429263 -3 29.42200294562481
    endloop
  endfacet
  facet normal 0 1 0
    outer loop
      vertex 182.47285698465717 0 30.571721813386375
      vertex 180.6750841710502 0 30.161391900244563
      vertex 176 0 33
    endloop
  endfacet
  facet normal 0 1 0
    outer loop
      vertex 186.5 0 -1
      vertex 183.91455884429263 0 2.5779970543751887
      vertex 183.91455884429263 0 4.422002945624811
    endloop
  endfacet
  facet normal 0 -1 0
    outer loop
      vertex 183.91455884429263 -3 29.42200294562481
      vertex 183.91455884429263 -3 27.57799705437519
      vertex 186.5 -3 33
    endloop
  endfacet
  facet normal 0 1 0
    outer loop
      vertex 180.6750841710502 0 30.161391900244563
      vertex 179.875 0 28.5
      vertex 176 0 33
    endloop
  endfacet
  facet normal 0 0 1
    outer loop
      vertex 186.5 0 33
      vertex 147 -3 33
      vertex 186.5 -3 33
    endloop
  endfacet
  facet normal 0 -1 0
    outer loop
      vertex 147 -3 33
      vertex 182.47285698465717 -3 30.571721813386375
      vertex 186.5 -3 33
    endloop
  endfacet
  facet normal 0 0 1
    outer loop
      vertex 176 0 33
      vertex 147 -3 33
      vertex 186.5 0 33
    endloop
  endfacet
  facet normal 0 -1 0
    outer loop
      vertex 147 -3 33
      vertex 180.6750841710502 -3 30.161391900244563
      vertex 182.47285698465717 -3 30.571721813386375
    endloop
  endfacet
  facet normal 0 0 1
    outer loop
      vertex 173 0 33
      vertex 147 -3 33
      vertex 176 0 33
    endloop
  endfacet
  facet normal 0 -1 0
    outer loop
      vertex 147 -3 33
      vertex 179.875 -3 28.5
      vertex 180.6750841710502 -3 30.161391900244563
    endloop
  endfacet
  facet normal 0 -1 0
    outer loop
      vertex 180.6750841710502 -3 26.838608099755437
      vertex 179.875 -3 28.5
      vertex 147 -3 33
    endloop
  endfacet
  facet normal 0 0 -1
    outer loop
      vertex 186.5 -3 -1
      vertex 147 0 -1
      vertex 173 0 -1
    endloop
  endfacet
  facet normal 0 0 1
    outer loop
      vertex 173 0 33
      vertex 147 0 33
      vertex 147 -3 33
    endloop
  endfacet
  facet normal 0 1 0
    outer loop
      vertex 173 0 -1
      vertex 147 0 -1
      vertex 147 0 33
    endloop
  endfacet
  facet normal 1 0 0
    outer loop
      vertex 186.5 -3 33
      vertex 186.5 -3 -1
      vertex 186.5 0 33
    endloop
  endfacet
  facet normal 0 -1 0
    outer loop
      vertex 183.91455884429263 -3 27.57799705437519
      vertex 183.91455884429263 -3 4.422002945624811
      vertex 186.5 -3 33
    endloop
  endfacet
  facet normal 0 -1 0
    outer loop
      vertex 179.875 -3 3.5
      vertex 180.6750841710502 -3 26.838608099755437
      vertex 147 -3 -1
    endloop
  endfacet
  facet normal 0 1 0
    outer loop
      vertex 186.5 0 33
      vertex 186.5 0 -1
      vertex 183.91455884429263 0 29.42200294562481
    endloop
  endfacet
  facet normal 1 0 0
    outer loop
      vertex 186.5 0 -1
      vertex 186.5 0 33
      vertex 186.5 -3 -1
    endloop
  endfacet
  facet normal 0 -1 0
    outer loop
      vertex 183.91455884429263 -3 2.5779970543751887
      vertex 186.5 -3 -1
      vertex 186.5 -3 33
    endloop
  endfacet
  facet normal 0 1 0
    outer loop
      vertex 180.6750841710502 0 5.161391900244563
      vertex 176 0 -1
      vertex 176 0 33
    endloop
  endfacet
  facet normal 0 -1 0
    outer loop
      vertex 180.6750841710502 -3 26.838608099755437
      vertex 179.875 -3 3.5
      vertex 180.6750841710502 -3 5.161391900244563
    endloop
  endfacet
  facet normal 0 -1 0
    outer loop
      vertex 182.47285698465717 -3 5.571721813386375
      vertex 182.47285698465717 -3 26.428278186613625
      vertex 180.6750841710502 -3 5.161391900244563
    endloop
  endfacet
  facet normal 0 1 0
    outer loop
      vertex 186.5 0 -1
      vertex 183.91455884429263 0 4.422002945624811
      vertex 176 0 33
    endloop
  endfacet
  facet normal 0 -1 0
    outer loop
      vertex 182.47285698465717 -3 5.571721813386375
      vertex 183.91455884429263 -3 4.422002945624811
      vertex 183.91455884429263 -3 27.57799705437519
    endloop
  endfacet
  facet normal 0 -1 0
    outer loop
      vertex 183.91455884429263 -3 4.422002945624811
      vertex 183.91455884429263 -3 2.5779970543751887
      vertex 186.5 -3 33
    endloop
  endfacet
  facet normal 0 1 0
    outer loop
      vertex 182.47285698465717 0 5.571721813386375
      vertex 180.6750841710502 0 5.161391900244563
      vertex 176 0 33
    endloop
  endfacet
  facet normal 0 1 0
    outer loop
      vertex 176 0 33
      vertex 183.91455884429263 0 4.422002945624811
      vertex 182.47285698465717 0 5.571721813386375
    endloop
  endfacet
  facet normal 0 1 0
    outer loop
      vertex 173 0 33
      vertex 173 0 -1
      vertex 147 0 33
    endloop
  endfacet
  facet normal 0 1 0
    outer loop
      vertex 179.875 0 28.5
      vertex 186.5 0 -1
      vertex 176 0 33
    endloop
  endfacet
  facet normal 0 -1 0
    outer loop
      vertex 182.47285698465717 -3 26.428278186613625
      vertex 182.47285698465717 -3 5.571721813386375
      vertex 183.91455884429263 -3 27.57799705437519
    endloop
  endfacet
  facet normal 0 -1 0
    outer loop
      vertex 180.6750841710502 -3 26.838608099755437
      vertex 180.6750841710502 -3 5.161391900244563
      vertex 182.47285698465717 -3 26.428278186613625
    endloop
  endfacet
  facet normal 0 1 0
    outer loop
      vertex 186.5 0 -1
      vertex 183.91455884429263 0 27.57799705437519
      vertex 183.91455884429263 0 29.42200294562481
    endloop
  endfacet
  facet normal 0 1 0
    outer loop
      vertex 186.5 0 -1
      vertex 182.47285698465717 0 26.428278186613625
      vertex 183.91455884429263 0 27.57799705437519
    endloop
  endfacet
  facet normal 0 -1 0
    outer loop
      vertex 147 -3 -1
      vertex 180.6750841710502 -3 26.838608099755437
      vertex 147 -3 33
    endloop
  endfacet
  facet normal 0 1 0
    outer loop
      vertex 186.5 0 -1
      vertex 180.6750841710502 0 26.838608099755437
      vertex 182.47285698465717 0 26.428278186613625
    endloop
  endfacet
  facet normal 0 0 1
    outer loop
      vertex 144 -3 33
      vertex 147 -3 33
      vertex 147 0 33
    endloop
  endfacet
  facet normal 0 0 -1
    outer loop
      vertex 144 -3 -1
      vertex 147 0 -1
      vertex 147 -3 -1
    endloop
  endfacet
  facet normal 5.15471922360131e-16 0.23195601962465764 0.9727262744266167
    outer loop
      vertex 144 130.001 2
      vertex 147 0 33
      vertex 147 116.55262068965517 5.206896551724138
    endloop
  endfacet
  facet normal -1 0 0
    outer loop
      vertex 144 130 2
      vertex 144 -3 33
      vertex 144 130.001 2
    endloop
  endfacet
  facet normal 1 0 0
    outer loop
      vertex 147 0 33
      vertex 147 0 -1
      vertex 147 116.55172413793103 -1
    endloop
  endfacet
  facet normal -1 0 0
    outer loop
      vertex 144 130 0
      vertex 144 -3 33
      vertex 144 130 2
    endloop
  endfacet
  facet normal 1 0 0
    outer loop
      vertex 147 0 33
      vertex 147 116.55172413793103 5.206896551724138
      vertex 147 116.55262068965517 5.206896551724138
    endloop
  endfacet
  facet normal 0 0 -1
    outer loop
      vertex 147 0 -1
      vertex 144 -3 -1
      vertex 147 116.55172413793103 -1
    endloop
  endfacet
  facet normal 1 0 0
    outer loop
      vertex 147 116.55172413793103 -1
      vertex 147 116.55172413793103 5.206896551724138
      vertex 147 0 33
    endloop
  endfacet
  facet normal -1 0 0
    outer loop
      vertex 144 -3 33
      vertex 144 130 0
      vertex 144 86.66666666666667 0
    endloop
  endfacet
  facet normal -1 0 0
    outer loop
      vertex 144 0 2
      vertex 144 -3 33
      vertex 144 86.66666666666667 0
    endloop
  endfacet
  facet normal -1 0 0
    outer loop
      vertex 144 0 2
      vertex 144 -3 2
      vertex 144 -3 33
    endloop
  endfacet
  facet normal 0 -1 0
    outer loop
      vertex 144 -3 2
      vertex 147 -3 -1
      vertex 144 -3 33
    endloop
  endfacet
  facet normal 0 0 -1
    outer loop
      vertex 147 116.55172413793103 -1
      vertex 144 -3 -1
      vertex 144 130 -1
    endloop
  endfacet
  facet normal 0 0 1
    outer loop
      vertex 144 -3 33
      vertex 147 0 33
      vertex 144 0 33
    endloop
  endfacet
  facet normal -4.962161949767286e-16 0.2319560196246576 0.9727262744266166
    outer loop
      vertex 144 130.001 2
      vertex 144 0 33
      vertex 147 0 33
    endloop
  endfacet
  facet normal -1 0 0
    outer loop
      vertex 144 0 33
      vertex 144 130.001 2
      vertex 144 -3 33
    endloop
  endfacet
  facet normal -1 0 0
    outer loop
      vertex 144 0 2
      vertex 144 86.66666666666667 0
      vertex 144 0 0
    endloop
  endfacet
  facet normal 0 -1 0
    outer loop
      vertex 144 -3 2
      vertex 144 -3 0
      vertex 147 -3 -1
    endloop
  endfacet
  facet normal 0 -1 0
    outer loop
      vertex 144 -3 -1
      vertex 147 -3 -1
      vertex 144 -3 0
    endloop
  endfacet
  facet normal 0 -1 0
    outer loop
      vertex 144 -3 33
      vertex 147 -3 -1
      vertex 147 -3 33
    endloop
  endfacet
  facet normal 0 0 1
    outer loop
      vertex 176 0 33
      vertex 176 0.0009999999999998899 33
      vertex 173 0 33
    endloop
  endfacet
  facet normal 0 0 -1
    outer loop
      vertex 147 130.001 -1
      vertex 144 130 -1
      vertex 144 130.001 -1
    endloop
  endfacet
  facet normal 0 0 -1
    outer loop
      vertex 147 130.001 -1
      vertex 147 116.55172413793103 -1
      vertex 144 130 -1
    endloop
  endfacet
  facet normal 0 0.23195770790016243 0.9727258718393909
    outer loop
      vertex 144 130.001 2
      vertex 176 0.0009999999999998899 33
      vertex 147 130.001 2
    endloop
  endfacet
  facet normal -0.7302714135138065 8.090205586804751e-13 0.6831571287811808
    outer loop
      vertex 147 116.55262068965517 5.206896551724138
      vertex 173 0.0009999999999998899 33
      vertex 144 130.001 2
    endloop
  endfacet
  facet normal -0.9760100831025236 -0.21772532623056295 0
    outer loop
      vertex 173 0 -1
      vertex 173 0 33
      vertex 147 116.55172413793103 5.206896551724138
    endloop
  endfacet
  facet normal 0.9760100831025236 0.21772532623056295 0
    outer loop
      vertex 176 0.0009999999999998899 33
      vertex 176 0.0009999999999998899 -1
      vertex 147 130.001 -1
    endloop
  endfacet
  facet normal 0.9760100831025236 0.21772532623056295 0
    outer loop
      vertex 147 130.001 0
      vertex 147 130.001 2
      vertex 176 0.0009999999999998899 33
    endloop
  endfacet
  facet normal 0 0 1
    outer loop
      vertex 173 0.0009999999999998899 33
      vertex 173 0 33
      vertex 176 0.0009999999999998899 33
    endloop
  endfacet
  facet normal 0.9760100831025236 0.21772532623056295 0
    outer loop
      vertex 176 0.0009999999999998899 33
      vertex 147 130.001 -1
      vertex 147 130.001 0
    endloop
  endfacet
  facet normal 0 0 -1
    outer loop
      vertex 176 0 -1
      vertex 147 130.001 -1
      vertex 176 0.0009999999999998899 -1
    endloop
  endfacet
  facet normal -0.7302714135188955 0 0.683157128775741
    outer loop
      vertex 147 116.55172413793103 5.206896551724138
      vertex 173 0 33
      vertex 147 116.55262068965517 5.206896551724138
    endloop
  endfacet
  facet normal 0 0 -1
    outer loop
      vertex 176 0 -1
      vertex 173 0 -1
      vertex 147 130.001 -1
    endloop
  endfacet
  facet normal 1 0 0
    outer loop
      vertex 176 0 33
      vertex 176 0 -1
      vertex 176 0.0009999999999998899 33
    endloop
  endfacet
  facet normal 1 0 0
    outer loop
      vertex 176 0.0009999999999998899 -1
      vertex 176 0.0009999999999998899 33
      vertex 176 0 -1
    endloop
  endfacet
  facet normal 0 0 -1
    outer loop
      vertex 147 130.001 -1
      vertex 173 0 -1
      vertex 147 116.55172413793103 -1
    endloop
  endfacet
  facet normal -0.9760100831025235 -0.21772532623056295 1.917261247598124e-16
    outer loop
      vertex 173 0 -1
      vertex 147 116.55172413793103 5.206896551724138
      vertex 147 116.55172413793103 -1
    endloop
  endfacet
  facet normal 0 0.23195770790016243 0.9727258718393909
    outer loop
      vertex 173 0.0009999999999998899 33
      vertex 176 0.0009999999999998899 33
      vertex 144 130.001 2
    endloop
  endfacet
  facet normal -0.7302714135188955 0 0.683157128775741
    outer loop
      vertex 173 0 33
      vertex 173 0.0009999999999998899 33
      vertex 147 116.55262068965517 5.206896551724138
    endloop
  endfacet
  facet normal -1 0 0
    outer loop
      vertex -3 133 0
      vertex -3 130.001 -1
      vertex -3 130.001 0
    endloop
  endfacet
  facet normal -1 0 0
    outer loop
      vertex -3 133 -1
      vertex -3 130.001 -1
      vertex -3 133 0
    endloop
  endfacet
  facet normal 1 0 0
    outer loop
      vertex 147 130.001 0
      vertex 147 133 -1
      vertex 147 133 0
    endloop
  endfacet
  facet normal 0 0 1
    outer loop
      vertex 0 130 0
      vertex 0 0 0
      vertex 144 130 0
    endloop
  endfacet
  facet normal 0 0 -1
    outer loop
      vertex 0 0 -1
      vertex -3 133 -1
      vertex 147 133 -1
    endloop
  endfacet
  facet normal 0 1 0
    outer loop
      vertex -3 133 0
      vertex 147 133 -1
      vertex -3 133 -1
    endloop
  endfacet
  facet normal 1 0 0
    outer loop
      vertex 147 130.001 -1
      vertex 147 133 -1
      vertex 147 130.001 0
    endloop
  endfacet
  facet normal 0 0 -1
    outer loop
      vertex 144 130 -1
      vertex 144 -3 -1
      vertex 0 -3 -1
    endloop
  endfacet
  facet normal 0 0 1
    outer loop
      vertex 144 86.66666666666667 0
      vertex 144 130 0
      vertex 0 0 0
    endloop
  endfacet
  facet normal 0 0 -1
    outer loop
      vertex 144 130 -1
      vertex 0 -3 -1
      vertex 144 130.001 -1
    endloop
  endfacet
  facet normal 0 0 -1
    outer loop
      vertex 0 -3 -1
      vertex 147 133 -1
      vertex 144 130.001 -1
    endloop
  endfacet
  facet normal 0 1 0
    outer loop
      vertex 147 133 -1
      vertex -3 133 0
      vertex 147 133 0
    endloop
  endfacet
  facet normal 0 0 -1
    outer loop
      vertex 147 133 -1
      vertex 147 130.001 -1
      vertex 144 130.001 -1
    endloop
  endfacet
  facet normal 0 -1 0
    outer loop
      vertex 144 -3 0
      vertex 0 -3 0
      vertex 144 -3 -1
    endloop
  endfacet
  facet normal 0 -1 0
    outer loop
      vertex 0 -3 -1
      vertex 144 -3 -1
      vertex 0 -3 0
    endloop
  endfacet
  facet normal 0 0 -1
    outer loop
      vertex 0 0 -1
      vertex 147 133 -1
      vertex 0 -3 -1
    endloop
  endfacet
  facet normal 0 0 -1
    outer loop
      vertex 0 0 -1
      vertex -3 130.001 -1
      vertex -3 133 -1
    endloop
  endfacet
  facet normal 0 0 1
    outer loop
      vertex 0 0 0
      vertex 144 0 0
      vertex 144 86.66666666666667 0
    endloop
  endfacet
  facet normal 0 1 0
    outer loop
      vertex 144 0 0
      vertex 0 0 0
      vertex 144 0 2
    endloop
  endfacet
  facet normal 0 -1 0
    outer loop
      vertex 144 -3 2
      vertex 0 -3 2
      vertex 144 -3 0
    endloop
  endfacet
  facet normal 0 0 1
    outer loop
      vertex 144 0 2
      vertex 0 0 2
      vertex 144 -3 2
    endloop
  endfacet
  facet normal 0 -1 0
    outer loop
      vertex 0 -3 2
      vertex 0 -3 0
      vertex 144 -3 0
    endloop
  endfacet
  facet normal 0 0 1
    outer loop
      vertex 0 0 2
      vertex 0 -3 2
      vertex 144 -3 2
    endloop
  endfacet
  facet normal 0 1 0
    outer loop
      vertex 144 0 2
      vertex 0 0 0
      vertex 0 0 2
    endloop
  endfacet
  facet normal -1 0 0
    outer loop
      vertex -3 133 2
      vertex -3 130.001 0
      vertex -3 130.001 2
    endloop
  endfacet
  facet normal 0 -1 0
    outer loop
      vertex 0 130 2
      vertex 0 130 0
      vertex 144 130 0
    endloop
  endfacet
  facet normal 0 1 0
    outer loop
      vertex 147 133 0
      vertex -3 133 2
      vertex 147 133 2
    endloop
  endfacet
  facet normal 0 0 1
    outer loop
      vertex -3 133 2
      vertex 144 130.001 2
      vertex 147 133 2
    endloop
  endfacet
  facet normal 0 0 1
    outer loop
      vertex 144 130.001 2
      vertex 0 130.001 2
      vertex 144 130 2
    endloop
  endfacet
  facet normal 0 0 1
    outer loop
      vertex 0 130.001 2
      vertex 144 130.001 2
      vertex -3 133 2
    endloop
  endfacet
  facet normal 0 0 1
    outer loop
      vertex 0 130.001 2
      vertex 0 130 2
      vertex 144 130 2
    endloop
  endfacet
  facet normal 0 1 0
    outer loop
      vertex 147 133 0
      vertex -3 133 0
      vertex -3 133 2
    endloop
  endfacet
  facet normal 0 -1 0
    outer loop
      vertex 0 130 2
      vertex 144 130 0
      vertex 144 130 2
    endloop
  endfacet
  facet normal -1 0 0
    outer loop
      vertex -3 133 0
      vertex -3 130.001 0
      vertex -3 133 2
    endloop
  endfacet
  facet normal 0 0 1
    outer loop
      vertex -3 133 2
      vertex -3 130.001 2
      vertex 0 130.001 2
    endloop
  endfacet
  facet normal 1 0 0
    outer loop
      vertex 147 130.001 2
      vertex 147 130.001 0
      vertex 147 133 0
    endloop
  endfacet
  facet normal 0 0 1
    outer loop
      vertex 147 133 2
      vertex 144 130.001 2
      vertex 147 130.001 2
    endloop
  endfacet
  facet normal 1 0 0
    outer loop
      vertex 147 130.001 2
      vertex 147 133 0
      vertex 147 133 2
    endloop
  endfacet
endsolid OpenSCAD_Model
